<mxfile host="Electron" agent="Mozilla/5.0 (Macintosh; Intel Mac OS X 10_15_7) AppleWebKit/537.36 (KHTML, like Gecko) draw.io/24.7.17 Chrome/128.0.6613.36 Electron/32.0.1 Safari/537.36" version="24.7.17" pages="2">
  <diagram name="Page-1" id="Lo48qywM1FHGIKQyEIHu">
    <mxGraphModel dx="1061" dy="-349" grid="0" gridSize="10" guides="1" tooltips="1" connect="1" arrows="1" fold="1" page="1" pageScale="1" pageWidth="850" pageHeight="1100" math="0" shadow="0">
      <root>
        <mxCell id="0" />
        <mxCell id="1" parent="0" />
        <mxCell id="dyGQCXBNsjJ9LCaC6bJl-72" value="" style="group" vertex="1" connectable="0" parent="1">
          <mxGeometry x="386.02" y="1872" width="162.98000000000002" height="106" as="geometry" />
        </mxCell>
        <mxCell id="dyGQCXBNsjJ9LCaC6bJl-73" value="Unit Test a Peice of Code" style="rounded=1;whiteSpace=wrap;html=1;verticalAlign=top;" vertex="1" parent="dyGQCXBNsjJ9LCaC6bJl-72">
          <mxGeometry width="162.98" height="106" as="geometry" />
        </mxCell>
        <mxCell id="dyGQCXBNsjJ9LCaC6bJl-74" value="" style="shape=image;verticalLabelPosition=bottom;labelBackgroundColor=default;verticalAlign=top;aspect=fixed;imageAspect=0;image=data:image/svg+xml,PHN2ZyB4bWxuczp4bGluaz0iaHR0cDovL3d3dy53My5vcmcvMTk5OS94bGluayIgeG1sbnM9Imh0dHA6Ly93d3cudzMub3JnLzIwMDAvc3ZnIiB4bWw6c3BhY2U9InByZXNlcnZlIiB2aWV3Qm94PSIwIDAgMjU2IDI1NiIgeT0iMHB4IiB4PSIwcHgiIGlkPSJMYXllcl8xIiB2ZXJzaW9uPSIxLjEiPiYjeGE7PGc+JiN4YTsJPHBhdGggZD0iTTI0My44OTgsMTgzLjIxM2MwLDMuMzEtMi43MDgsNi4wMTgtNi4wMTgsNi4wMThIMTguMTJjLTMuMzEsMC02LjAxOC0yLjcwOC02LjAxOC02LjAxOFY3LjU4NiYjMTA7JiM5OyYjOTtjMC0zLjMxLDIuNzA4LTYuMDE4LDYuMDE4LTYuMDE4aDIxOS43NmMzLjMxLDAsNi4wMTgsMi43MDgsNi4wMTgsNi4wMThWMTgzLjIxM3oiIGZpbGw9IiM2M0JDRTciLz4mI3hhOwk8Zz4mI3hhOwkJPHBhdGggZD0iTTI3LjEwMiwxODMuMjEzVjcuNTg2YzAtMy4zMSwyLjcwOC02LjAxOCw2LjAxOC02LjAxOGgtMTVjLTMuMzEsMC02LjAxOCwyLjcwOC02LjAxOCw2LjAxOHYxNzUuNjI3JiMxMDsmIzk7JiM5OyYjOTtjMCwzLjMxLDIuNzA4LDYuMDE4LDYuMDE4LDYuMDE4aDE1QzI5LjgxLDE4OS4yMzEsMjcuMTAyLDE4Ni41MjMsMjcuMTAyLDE4My4yMTN6IiBmaWxsPSIjNjM3N0U3Ii8+JiN4YTsJPC9nPiYjeGE7CTxnPiYjeGE7CQk8cGF0aCBkPSJNMjI4Ljg5OCwxODMuMjEzVjcuNTg2YzAtMy4zMS0yLjcwOC02LjAxOC02LjAxOC02LjAxOGgxNWMzLjMxLDAsNi4wMTgsMi43MDgsNi4wMTgsNi4wMTh2MTc1LjYyNyYjMTA7JiM5OyYjOTsmIzk7YzAsMy4zMS0yLjcwOCw2LjAxOC02LjAxOCw2LjAxOGgtMTVDMjI2LjE5LDE4OS4yMzEsMjI4Ljg5OCwxODYuNTIzLDIyOC44OTgsMTgzLjIxM3oiIGZpbGw9IiM2M0UyRTciLz4mI3hhOwk8L2c+JiN4YTsJPGc+JiN4YTsJCTxwYXRoIGQ9Ik0yMzcuODgsMS41NjhIMTguMTJjLTMuMzEsMC02LjAxOCwyLjcwOC02LjAxOCw2LjAxOFYyNC41NWgyMzEuNzk2VjcuNTg2JiMxMDsmIzk7JiM5OyYjOTtDMjQzLjg5OCw0LjI3NiwyNDEuMTksMS41NjgsMjM3Ljg4LDEuNTY4eiIgZmlsbD0iI0NFQ0VDRSIvPiYjeGE7CTwvZz4mI3hhOwk8Zz4mI3hhOwkJPHBhdGggZD0iTTMzLjEyLDEuNTY4aC0xNWMtMy4zMSwwLTYuMDE4LDIuNzA4LTYuMDE4LDYuMDE4VjI0LjU1aDE1VjcuNTg2QzI3LjEwMiw0LjI3NiwyOS44MSwxLjU2OCwzMy4xMiwxLjU2OHoiIGZpbGw9IiNBRkFGQUYiLz4mI3hhOwk8L2c+JiN4YTsJPGc+JiN4YTsJCTxwYXRoIGQ9Ik0yMjIuODgsMS41NjhoMTVjMy4zMSwwLDYuMDE4LDIuNzA4LDYuMDE4LDYuMDE4VjI0LjU1aC0xNVY3LjU4NiYjMTA7JiM5OyYjOTsmIzk7QzIyOC44OTgsNC4yNzYsMjI2LjE5LDEuNTY4LDIyMi44OCwxLjU2OHoiIGZpbGw9IiNFMkUyRTIiLz4mI3hhOwk8L2c+JiN4YTsJPGNpcmNsZSByPSIzLjg0MiIgY3k9IjEzLjA1OSIgY3g9IjIzLjA4MiIgZmlsbD0iIzYzQkNFNyIvPiYjeGE7CTxjaXJjbGUgcj0iMy44NDIiIGN5PSIxMy4wNTkiIGN4PSIzOC40MzIiIGZpbGw9IiNGOEFGMjMiLz4mI3hhOwk8Y2lyY2xlIHI9IjMuODQyIiBjeT0iMTMuMDU5IiBjeD0iNTMuNzgzIiBmaWxsPSIjRjQ2Mjc1Ii8+JiN4YTsJPGNpcmNsZSByPSI3My43NDciIGN5PSIxNjguOTk1IiBjeD0iMTI4IiBmaWxsPSIjRjhBRjIzIi8+JiN4YTsJPGc+JiN4YTsJCTxwYXRoIGQ9Ik0yMy4wODIsNy43MTdjLTIuOTQ2LDAtNS4zNDMsMi4zOTYtNS4zNDMsNS4zNDJzMi4zOTYsNS4zNDIsNS4zNDMsNS4zNDJjMi45NDUsMCw1LjM0Mi0yLjM5Niw1LjM0Mi01LjM0MiYjMTA7JiM5OyYjOTsmIzk7UzI2LjAyNyw3LjcxNywyMy4wODIsNy43MTd6IE0yMy4wODIsMTUuNDAxYy0xLjI5MiwwLTIuMzQzLTEuMDUxLTIuMzQzLTIuMzQyczEuMDUxLTIuMzQyLDIuMzQzLTIuMzQyJiMxMDsmIzk7JiM5OyYjOTtjMS4yOTEsMCwyLjM0MiwxLjA1MSwyLjM0MiwyLjM0MlMyNC4zNzMsMTUuNDAxLDIzLjA4MiwxNS40MDF6IiBmaWxsPSIjM0YzNjc5Ii8+JiN4YTsJCTxwYXRoIGQ9Ik0zOC40MzMsNy43MTdjLTIuOTQ2LDAtNS4zNDMsMi4zOTYtNS4zNDMsNS4zNDJzMi4zOTYsNS4zNDIsNS4zNDMsNS4zNDJjMi45NDUsMCw1LjM0Mi0yLjM5Niw1LjM0Mi01LjM0MiYjMTA7JiM5OyYjOTsmIzk7UzQxLjM3OCw3LjcxNywzOC40MzMsNy43MTd6IE0zOC40MzMsMTUuNDAxYy0xLjI5MiwwLTIuMzQzLTEuMDUxLTIuMzQzLTIuMzQyczEuMDUxLTIuMzQyLDIuMzQzLTIuMzQyJiMxMDsmIzk7JiM5OyYjOTtjMS4yOTEsMCwyLjM0MiwxLjA1MSwyLjM0MiwyLjM0MlMzOS43MjQsMTUuNDAxLDM4LjQzMywxNS40MDF6IiBmaWxsPSIjM0YzNjc5Ii8+JiN4YTsJCTxwYXRoIGQ9Ik01My43ODMsNy43MTdjLTIuOTQ1LDAtNS4zNDIsMi4zOTYtNS4zNDIsNS4zNDJzMi4zOTYsNS4zNDIsNS4zNDIsNS4zNDJzNS4zNDItMi4zOTYsNS4zNDItNS4zNDImIzEwOyYjOTsmIzk7JiM5O1M1Ni43MjksNy43MTcsNTMuNzgzLDcuNzE3eiBNNTMuNzgzLDE1LjQwMWMtMS4yOTEsMC0yLjM0Mi0xLjA1MS0yLjM0Mi0yLjM0MnMxLjA1MS0yLjM0MiwyLjM0Mi0yLjM0MnMyLjM0MiwxLjA1MSwyLjM0MiwyLjM0MiYjMTA7JiM5OyYjOTsmIzk7UzU1LjA3NCwxNS40MDEsNTMuNzgzLDE1LjQwMXoiIGZpbGw9IiMzRjM2NzkiLz4mI3hhOwkJPHBhdGggZD0iTTIwLjc0NywyNTIuOTMySDEuNTY4Yy0wLjgyOCwwLTEuNSwwLjY3MS0xLjUsMS41czAuNjcyLDEuNSwxLjUsMS41aDE5LjE3OWMwLjgyOCwwLDEuNS0wLjY3MSwxLjUtMS41JiMxMDsmIzk7JiM5OyYjOTtTMjEuNTc1LDI1Mi45MzIsMjAuNzQ3LDI1Mi45MzJ6IiBmaWxsPSIjM0YzNjc5Ii8+JiN4YTsJCTxwYXRoIGQ9Ik0yNTQuNDMyLDI1Mi45MzJoLTE5LjE3OWMtMC44MjgsMC0xLjUsMC42NzEtMS41LDEuNXMwLjY3MiwxLjUsMS41LDEuNWgxOS4xNzljMC44MjgsMCwxLjUtMC42NzEsMS41LTEuNSYjMTA7JiM5OyYjOTsmIzk7UzI1NS4yNiwyNTIuOTMyLDI1NC40MzIsMjUyLjkzMnoiIGZpbGw9IiMzRjM2NzkiLz4mI3hhOwkJPHBhdGggZD0iTTIyNC4zOSwyNTIuOTMySDMxLjYxYy0wLjgyOCwwLTEuNSwwLjY3MS0xLjUsMS41czAuNjcyLDEuNSwxLjUsMS41SDIyNC4zOWMwLjgyOCwwLDEuNS0wLjY3MSwxLjUtMS41JiMxMDsmIzk7JiM5OyYjOTtTMjI1LjIxOCwyNTIuOTMyLDIyNC4zOSwyNTIuOTMyeiIgZmlsbD0iIzNGMzY3OSIvPiYjeGE7CQk8cGF0aCBkPSJNMS41NjgsMjQ0LjI0MmgyNTIuODYzYzAuODI4LDAsMS41LTAuNjcxLDEuNS0xLjVzLTAuNjcyLTEuNS0xLjUtMS41SDE0OC45ODYmIzEwOyYjOTsmIzk7JiM5O2MyNC4zOTItNy4wOTcsNDMuNzA1LTI2LjIyMyw1MS4wNDgtNTAuNTExaDM3Ljg0NmM0LjE0NiwwLDcuNTE4LTMuMzczLDcuNTE4LTcuNTE4VjI0LjU1VjcuNTg2djAmIzEwOyYjOTsmIzk7JiM5O2MwLTIuMzMyLTEuMDY3LTQuNDE5LTIuNzM4LTUuNzk5Yy0xLjMtMS4wNzMtMi45NjYtMS43MTktNC43NzktMS43MTlIMTguMTJjLTEuODE0LDAtMy40NzksMC42NDYtNC43NzksMS43MTkmIzEwOyYjOTsmIzk7JiM5O2MtMS42NzEsMS4zOC0yLjczOCwzLjQ2Ny0yLjczOCw1Ljc5OXYwVjI0LjU1djE1OC42NjRjMCw0LjE0NSwzLjM3Miw3LjUxOCw3LjUxOCw3LjUxOGgzNy44NDYmIzEwOyYjOTsmIzk7JiM5O2M3LjM0MywyNC4yODgsMjYuNjU1LDQzLjQxNCw1MS4wNDgsNTAuNTExSDEuNTY4Yy0wLjgyOCwwLTEuNSwwLjY3MS0xLjUsMS41UzAuNzQsMjQ0LjI0MiwxLjU2OCwyNDQuMjQyeiBNMTMuNjAzLDcuNTg2JiMxMDsmIzk7JiM5OyYjOTtjMC0yLjQ5MSwyLjAyNi00LjUxOCw0LjUxOC00LjUxOGgyMTkuNzZjMi40OTEsMCw0LjUxOCwyLjAyNyw0LjUxOCw0LjUxOFYyMy4wNUgxMy42MDNWNy41ODZ6IE0xOC4xMiwxODcuNzMxJiMxMDsmIzk7JiM5OyYjOTtjLTIuNDkxLDAtNC41MTgtMi4wMjYtNC41MTgtNC41MThWMjYuMDVoMjI4Ljc5NXYxNTcuMTY0YzAsMi40OTEtMi4wMjYsNC41MTgtNC41MTgsNC41MThoLTM2Ljk5NSYjMTA7JiM5OyYjOTsmIzk7YzEuNTQxLTUuOTkyLDIuMzYyLTEyLjI3LDIuMzYyLTE4LjczNmMwLTQxLjQ5Mi0zMy43NTYtNzUuMjQ4LTc1LjI0Ny03NS4yNDhzLTc1LjI0NywzMy43NTYtNzUuMjQ3LDc1LjI0OCYjMTA7JiM5OyYjOTsmIzk7YzAsNi40NjYsMC44MjEsMTIuNzQ0LDIuMzYyLDE4LjczNkgxOC4xMnogTTU1Ljc5MSwxNzAuNDk1aDguNDU5YzAuODI4LDAsMS41LTAuNjcxLDEuNS0xLjVzLTAuNjcyLTEuNS0xLjUtMS41aC04LjQ1OSYjMTA7JiM5OyYjOTsmIzk7YzAuNzk0LTM4LjY0NSwzMi4wNjUtNjkuOTE2LDcwLjcwOS03MC43MDl2OC40NTljMCwwLjgyOSwwLjY3MiwxLjUsMS41LDEuNXMxLjUtMC42NzEsMS41LTEuNXYtOC40NTkmIzEwOyYjOTsmIzk7JiM5O2MzOC42NDQsMC43OTQsNjkuOTE1LDMyLjA2NSw3MC43MDksNzAuNzA5aC04LjQ1OWMtMC44MjgsMC0xLjUsMC42NzEtMS41LDEuNXMwLjY3MiwxLjUsMS41LDEuNWg4LjQ1OSYjMTA7JiM5OyYjOTsmIzk7Yy0wLjc5NCwzOC42NDUtMzIuMDY1LDY5LjkxNi03MC43MDksNzAuNzA5di04LjQ1OWMwLTAuODI5LTAuNjcyLTEuNS0xLjUtMS41cy0xLjUsMC42NzEtMS41LDEuNXY4LjQ1OSYjMTA7JiM5OyYjOTsmIzk7Qzg3Ljg1NiwyNDAuNDEsNTYuNTg1LDIwOS4xMzksNTUuNzkxLDE3MC40OTV6IiBmaWxsPSIjM0YzNjc5Ii8+JiN4YTsJCTxwYXRoIGQ9Ik0xMjgsMTcwLjQ5NWgzOC40MTNjMC44MjgsMCwxLjUtMC42NzEsMS41LTEuNXMtMC42NzItMS41LTEuNS0xLjVIMTI5LjVWMTE2LjRjMC0wLjgyOS0wLjY3Mi0xLjUtMS41LTEuNSYjMTA7JiM5OyYjOTsmIzk7cy0xLjUsMC42NzEtMS41LDEuNXY1Mi41OTRDMTI2LjUsMTY5LjgyMywxMjcuMTcyLDE3MC40OTUsMTI4LDE3MC40OTV6IiBmaWxsPSIjM0YzNjc5Ii8+JiN4YTsJCTxwYXRoIGQ9Ik0zNS40NjQsNDYuMDhoODAuOTE3YzAuODI4LDAsMS41LTAuNjcxLDEuNS0xLjVzLTAuNjcyLTEuNS0xLjUtMS41SDM1LjQ2NGMtMC44MjgsMC0xLjUsMC42NzEtMS41LDEuNSYjMTA7JiM5OyYjOTsmIzk7UzM0LjYzNiw0Ni4wOCwzNS40NjQsNDYuMDh6IiBmaWxsPSIjM0YzNjc5Ii8+JiN4YTsJCTxwYXRoIGQ9Ik0zNS40NjQsNjEuMzk4aDgwLjkxN2MwLjgyOCwwLDEuNS0wLjY3MSwxLjUtMS41cy0wLjY3Mi0xLjUtMS41LTEuNUgzNS40NjRjLTAuODI4LDAtMS41LDAuNjcxLTEuNSwxLjUmIzEwOyYjOTsmIzk7JiM5O1MzNC42MzYsNjEuMzk4LDM1LjQ2NCw2MS4zOTh6IiBmaWxsPSIjM0YzNjc5Ii8+JiN4YTsJCTxwYXRoIGQ9Ik0xMTcuODgxLDc1LjIxN2MwLTAuODI5LTAuNjcyLTEuNS0xLjUtMS41SDM1LjQ2NGMtMC44MjgsMC0xLjUsMC42NzEtMS41LDEuNXMwLjY3MiwxLjUsMS41LDEuNWg4MC45MTcmIzEwOyYjOTsmIzk7JiM5O0MxMTcuMjA5LDc2LjcxNywxMTcuODgxLDc2LjA0NiwxMTcuODgxLDc1LjIxN3oiIGZpbGw9IiMzRjM2NzkiLz4mI3hhOwkJPHBhdGggZD0iTTEzOS42MTksNDYuMDhoODAuOTE3YzAuODI4LDAsMS41LTAuNjcxLDEuNS0xLjVzLTAuNjcyLTEuNS0xLjUtMS41aC04MC45MTdjLTAuODI4LDAtMS41LDAuNjcxLTEuNSwxLjUmIzEwOyYjOTsmIzk7JiM5O1MxMzguNzkxLDQ2LjA4LDEzOS42MTksNDYuMDh6IiBmaWxsPSIjM0YzNjc5Ii8+JiN4YTsJCTxwYXRoIGQ9Ik0xMzkuNjE5LDYxLjM5OGg4MC45MTdjMC44MjgsMCwxLjUtMC42NzEsMS41LTEuNXMtMC42NzItMS41LTEuNS0xLjVoLTgwLjkxN2MtMC44MjgsMC0xLjUsMC42NzEtMS41LDEuNSYjMTA7JiM5OyYjOTsmIzk7UzEzOC43OTEsNjEuMzk4LDEzOS42MTksNjEuMzk4eiIgZmlsbD0iIzNGMzY3OSIvPiYjeGE7CQk8cGF0aCBkPSJNMTM5LjYxOSw3Ni43MTdoODAuOTE3YzAuODI4LDAsMS41LTAuNjcxLDEuNS0xLjVzLTAuNjcyLTEuNS0xLjUtMS41aC04MC45MTdjLTAuODI4LDAtMS41LDAuNjcxLTEuNSwxLjUmIzEwOyYjOTsmIzk7JiM5O1MxMzguNzkxLDc2LjcxNywxMzkuNjE5LDc2LjcxN3oiIGZpbGw9IiMzRjM2NzkiLz4mI3hhOwk8L2c+JiN4YTs8L2c+JiN4YTs8L3N2Zz4=;" vertex="1" parent="dyGQCXBNsjJ9LCaC6bJl-72">
          <mxGeometry x="17.5" y="28" width="60" height="60" as="geometry" />
        </mxCell>
        <mxCell id="dyGQCXBNsjJ9LCaC6bJl-75" value="" style="shape=image;verticalLabelPosition=bottom;labelBackgroundColor=default;verticalAlign=top;aspect=fixed;imageAspect=0;image=data:image/svg+xml,PHN2ZyB4bWxuczp4bGluaz0iaHR0cDovL3d3dy53My5vcmcvMTk5OS94bGluayIgeG1sbnM9Imh0dHA6Ly93d3cudzMub3JnLzIwMDAvc3ZnIiB4bWw6c3BhY2U9InByZXNlcnZlIiBzdHlsZT0iZW5hYmxlLWJhY2tncm91bmQ6bmV3IDAgMCA0OTIgNDkyOyIgdmlld0JveD0iMCAwIDQ5MiA0OTIiIHk9IjBweCIgeD0iMHB4IiB2ZXJzaW9uPSIxLjEiPiYjeGE7PGcgaWQ9Ik1hc3Rlcl9MYXllcl8yIj4mI3hhOzwvZz4mI3hhOzxnIGlkPSJMYXllcl8xIj4mI3hhOwk8Zz4mI3hhOwkJPGc+JiN4YTsJCQk8Zz4mI3hhOwkJCQk8Zz4mI3hhOwkJCQkJPGc+JiN4YTsJCQkJCQk8Zz4mI3hhOwkJCQkJCQk8cGF0aCBkPSJNMjc2Ljk4LDQzMS4wNmMtODQuODMyLDAtMTUzLjYtNjguNzY4LTE1My42LTE1My42JiMxMDsmIzk7JiM5OyYjOTsmIzk7JiM5OyYjOTsmIzk7JiM5O2w2MS40NCwwYzAtMTAuMTgsOC4yNTMtMTguNDMyLDE4LjQzMi0xOC40MzJjNS4wODksMCw5LjY5NywyLjA2NCwxMy4wMzQsNS4zOThjMy4zMzUsMy4zMzcsNS4zOTgsNy45NDUsNS4zOTgsMTMuMDM0aDU1LjI5NiYjMTA7JiM5OyYjOTsmIzk7JiM5OyYjOTsmIzk7JiM5OyYjOTtWNDMxLjA2eiIgc3R5bGU9ImZpbGwtcnVsZTpldmVub2RkO2NsaXAtcnVsZTpldmVub2RkO2ZpbGw6IzBCNzk5RDsiLz4mI3hhOwkJCQkJCTwvZz4mI3hhOwkJCQkJCTxnPiYjeGE7CQkJCQkJCTxwYXRoIGQ9Ik00MzAuNTgsMjc3LjQ2YzAsODQuODMyLTY4Ljc2OCwxNTMuNi0xNTMuNiwxNTMuNiYjMTA7JiM5OyYjOTsmIzk7JiM5OyYjOTsmIzk7JiM5OyYjOTt2LTYxLjQ0Yy0xMC4xOCwwLTE4LjQzMi04LjI1My0xOC40MzItMTguNDMyYzAtNS4wODksMi4wNjQtOS42OTcsNS4zOTgtMTMuMDM0YzMuMzM3LTMuMzM1LDcuOTQ1LTUuMzk4LDEzLjAzNC01LjM5OCYjMTA7JiM5OyYjOTsmIzk7JiM5OyYjOTsmIzk7JiM5OyYjOTtsMC01NS4yOTZINDMwLjU4eiIgc3R5bGU9ImZpbGwtcnVsZTpldmVub2RkO2NsaXAtcnVsZTpldmVub2RkO2ZpbGw6I0ZGNEE0QTsiLz4mI3hhOwkJCQkJCTwvZz4mI3hhOwkJCQkJCTxnPiYjeGE7CQkJCQkJCTxwYXRoIGQ9Ik00MzAuNTgsMjc3LjQ2aC02MS40NCYjMTA7JiM5OyYjOTsmIzk7JiM5OyYjOTsmIzk7JiM5OyYjOTtjMCwxMC4xOC04LjI1MywxOC40MzItMTguNDMyLDE4LjQzMmMtNS4wODksMC05LjY5Ny0yLjA2NC0xMy4wMzQtNS4zOThjLTMuMzM1LTMuMzM3LTUuMzk4LTcuOTQ1LTUuMzk4LTEzLjAzNEgyNzYuOTgmIzEwOyYjOTsmIzk7JiM5OyYjOTsmIzk7JiM5OyYjOTsmIzk7di00OS4xNTJjNS4wODksMCw5LjY5Ny0yLjA2NCwxMy4wMzQtNS4zOThjMy4zMzUtMy4zMzcsNS4zOTgtNy45NDUsNS4zOTgtMTMuMDM0YzAtMTAuMTgtOC4yNTMtMTguNDMyLTE4LjQzMi0xOC40MzJWMTIzLjg2JiMxMDsmIzk7JiM5OyYjOTsmIzk7JiM5OyYjOTsmIzk7JiM5O0MzNjEuODEyLDEyMy44Niw0MzAuNTgsMTkyLjYyOCw0MzAuNTgsMjc3LjQ2eiIgc3R5bGU9ImZpbGwtcnVsZTpldmVub2RkO2NsaXAtcnVsZTpldmVub2RkO2ZpbGw6I0ZGRjY4RTsiLz4mI3hhOwkJCQkJCTwvZz4mI3hhOwkJCQkJCTxnPiYjeGE7CQkJCQkJCTxwYXRoIGQ9Ik0yMzMuOTcyLDE0OC40MzZjMCw1LjA4OS0yLjA2NCw5LjY5Ny01LjM5OCwxMy4wMzQmIzEwOyYjOTsmIzk7JiM5OyYjOTsmIzk7JiM5OyYjOTsmIzk7Yy0zLjMzNywzLjMzNC03Ljk0NSw1LjM5OC0xMy4wMzQsNS4zOTh2NDkuMTUyaC01NS4yOTZjMC01LjA4OS0yLjA2NC05LjY5Ny01LjM5OC0xMy4wMzQmIzEwOyYjOTsmIzk7JiM5OyYjOTsmIzk7JiM5OyYjOTsmIzk7Yy0zLjMzNy0zLjMzNS03Ljk0NS01LjM5OC0xMy4wMzQtNS4zOThjLTEwLjE4LDAtMTguNDMyLDguMjUyLTE4LjQzMiwxOC40MzJINjEuOTRjMC04NC44MzIsNjguNzY4LTE1My42LDE1My42LTE1My42JiMxMDsmIzk7JiM5OyYjOTsmIzk7JiM5OyYjOTsmIzk7JiM5O3Y2Ny41ODRDMjI1LjcyLDEzMC4wMDQsMjMzLjk3MiwxMzguMjU2LDIzMy45NzIsMTQ4LjQzNnoiIHN0eWxlPSJmaWxsLXJ1bGU6ZXZlbm9kZDtjbGlwLXJ1bGU6ZXZlbm9kZDtmaWxsOiMwMEZGOTQ7Ii8+JiN4YTsJCQkJCQk8L2c+JiN4YTsJCQkJCTwvZz4mI3hhOwkJCQkJPGc+JiN4YTsJCQkJCQk8Zz4mI3hhOwkJCQkJCQk8Zz4mI3hhOwkJCQkJCQkJPHBhdGggZD0iTTEyMy4zOCwxNjYuNjdjLTEuNTIyLDAtMy4wNDMtMC41ODEtNC4yMDQtMS43NDEmIzEwOyYjOTsmIzk7JiM5OyYjOTsmIzk7JiM5OyYjOTsmIzk7JiM5O2wtMTIuMjg4LTEyLjI4OGMtMS4xMTUtMS4xMTUtMS43NDEtMi42MjctMS43NDEtNC4yMDRzMC42MjctMy4wODksMS43NDEtNC4yMDRsMTIuMjg4LTEyLjI4OCYjMTA7JiM5OyYjOTsmIzk7JiM5OyYjOTsmIzk7JiM5OyYjOTsmIzk7YzIuMzIyLTIuMzIyLDYuMDg3LTIuMzIyLDguNDA5LDBjMi4zMjIsMi4zMjIsMi4zMjIsNi4wODcsMCw4LjQwOWwtOC4wODQsOC4wODRsOC4wODQsOC4wODQmIzEwOyYjOTsmIzk7JiM5OyYjOTsmIzk7JiM5OyYjOTsmIzk7JiM5O2MyLjMyMiwyLjMyMiwyLjMyMiw2LjA4NiwwLDguNDA5QzEyNi40MjQsMTY2LjA4OSwxMjQuOTAyLDE2Ni42NywxMjMuMzgsMTY2LjY3eiIgc3R5bGU9ImZpbGwtcnVsZTpldmVub2RkO2NsaXAtcnVsZTpldmVub2RkO2ZpbGw6IzBCNzk5RDsiLz4mI3hhOwkJCQkJCQk8L2c+JiN4YTsJCQkJCQkJPGc+JiN4YTsJCQkJCQkJCTxwYXRoIGQ9Ik0xODQuODIsMTY2LjY3Yy0xLjUyMiwwLTMuMDQzLTAuNTgtNC4yMDQtMS43NDEmIzEwOyYjOTsmIzk7JiM5OyYjOTsmIzk7JiM5OyYjOTsmIzk7JiM5O2MtMi4zMjItMi4zMjItMi4zMjItNi4wODcsMC04LjQwOWw4LjA4My04LjA4NGwtOC4wODMtOC4wODRjLTIuMzIyLTIuMzIyLTIuMzIyLTYuMDg3LDAtOC40MDkmIzEwOyYjOTsmIzk7JiM5OyYjOTsmIzk7JiM5OyYjOTsmIzk7JiM5O2MyLjMyMi0yLjMyMiw2LjA4Ny0yLjMyMiw4LjQwOSwwbDEyLjI4OCwxMi4yODhjMS4xMTUsMS4xMTUsMS43NDEsMi42MjgsMS43NDEsNC4yMDRzLTAuNjI2LDMuMDg5LTEuNzQxLDQuMjA0JiMxMDsmIzk7JiM5OyYjOTsmIzk7JiM5OyYjOTsmIzk7JiM5OyYjOTtsLTEyLjI4OCwxMi4yODhDMTg3Ljg2NCwxNjYuMDg5LDE4Ni4zNDIsMTY2LjY3LDE4NC44MiwxNjYuNjd6IiBzdHlsZT0iZmlsbC1ydWxlOmV2ZW5vZGQ7Y2xpcC1ydWxlOmV2ZW5vZGQ7ZmlsbDojMEI3OTlEOyIvPiYjeGE7CQkJCQkJCTwvZz4mI3hhOwkJCQkJCQk8Zz4mI3hhOwkJCQkJCQkJPHBhdGggZD0iTTE2MC4yNDksMTY2LjY3MWMtMi4xODEsMC00LjI4MS0xLjIwNC01LjMyMy0zLjI4OCYjMTA7JiM5OyYjOTsmIzk7JiM5OyYjOTsmIzk7JiM5OyYjOTsmIzk7bC0xMi4yODgtMjQuNTc2Yy0xLjQ2OS0yLjkzNy0wLjI3OC02LjUwOSwyLjY1OS03Ljk3N2MyLjkzNy0xLjQ2OSw2LjUwOS0wLjI3OCw3Ljk3NywyLjY1OWwxMi4yODgsMjQuNTc2JiMxMDsmIzk7JiM5OyYjOTsmIzk7JiM5OyYjOTsmIzk7JiM5OyYjOTtjMS40NjksMi45MzcsMC4yNzgsNi41MDktMi42NTksNy45NzdDMTYyLjA1LDE2Ni40NjksMTYxLjE0MiwxNjYuNjcxLDE2MC4yNDksMTY2LjY3MXoiIHN0eWxlPSJmaWxsLXJ1bGU6ZXZlbm9kZDtjbGlwLXJ1bGU6ZXZlbm9kZDtmaWxsOiMwQjc5OUQ7Ii8+JiN4YTsJCQkJCQkJPC9nPiYjeGE7CQkJCQkJPC9nPiYjeGE7CQkJCQk8L2c+JiN4YTsJCQkJPC9nPiYjeGE7CQkJPC9nPiYjeGE7CQk8L2c+JiN4YTsJPC9nPiYjeGE7PC9nPiYjeGE7PC9zdmc+;" vertex="1" parent="dyGQCXBNsjJ9LCaC6bJl-72">
          <mxGeometry x="76" y="18" width="80" height="80" as="geometry" />
        </mxCell>
        <mxCell id="dyGQCXBNsjJ9LCaC6bJl-68" value="" style="group" vertex="1" connectable="0" parent="1">
          <mxGeometry x="376.02" y="1862" width="162.98000000000002" height="106" as="geometry" />
        </mxCell>
        <mxCell id="dyGQCXBNsjJ9LCaC6bJl-69" value="Unit Test a Peice of Code" style="rounded=1;whiteSpace=wrap;html=1;verticalAlign=top;" vertex="1" parent="dyGQCXBNsjJ9LCaC6bJl-68">
          <mxGeometry width="162.98" height="106" as="geometry" />
        </mxCell>
        <mxCell id="dyGQCXBNsjJ9LCaC6bJl-70" value="" style="shape=image;verticalLabelPosition=bottom;labelBackgroundColor=default;verticalAlign=top;aspect=fixed;imageAspect=0;image=data:image/svg+xml,PHN2ZyB4bWxuczp4bGluaz0iaHR0cDovL3d3dy53My5vcmcvMTk5OS94bGluayIgeG1sbnM9Imh0dHA6Ly93d3cudzMub3JnLzIwMDAvc3ZnIiB4bWw6c3BhY2U9InByZXNlcnZlIiB2aWV3Qm94PSIwIDAgMjU2IDI1NiIgeT0iMHB4IiB4PSIwcHgiIGlkPSJMYXllcl8xIiB2ZXJzaW9uPSIxLjEiPiYjeGE7PGc+JiN4YTsJPHBhdGggZD0iTTI0My44OTgsMTgzLjIxM2MwLDMuMzEtMi43MDgsNi4wMTgtNi4wMTgsNi4wMThIMTguMTJjLTMuMzEsMC02LjAxOC0yLjcwOC02LjAxOC02LjAxOFY3LjU4NiYjMTA7JiM5OyYjOTtjMC0zLjMxLDIuNzA4LTYuMDE4LDYuMDE4LTYuMDE4aDIxOS43NmMzLjMxLDAsNi4wMTgsMi43MDgsNi4wMTgsNi4wMThWMTgzLjIxM3oiIGZpbGw9IiM2M0JDRTciLz4mI3hhOwk8Zz4mI3hhOwkJPHBhdGggZD0iTTI3LjEwMiwxODMuMjEzVjcuNTg2YzAtMy4zMSwyLjcwOC02LjAxOCw2LjAxOC02LjAxOGgtMTVjLTMuMzEsMC02LjAxOCwyLjcwOC02LjAxOCw2LjAxOHYxNzUuNjI3JiMxMDsmIzk7JiM5OyYjOTtjMCwzLjMxLDIuNzA4LDYuMDE4LDYuMDE4LDYuMDE4aDE1QzI5LjgxLDE4OS4yMzEsMjcuMTAyLDE4Ni41MjMsMjcuMTAyLDE4My4yMTN6IiBmaWxsPSIjNjM3N0U3Ii8+JiN4YTsJPC9nPiYjeGE7CTxnPiYjeGE7CQk8cGF0aCBkPSJNMjI4Ljg5OCwxODMuMjEzVjcuNTg2YzAtMy4zMS0yLjcwOC02LjAxOC02LjAxOC02LjAxOGgxNWMzLjMxLDAsNi4wMTgsMi43MDgsNi4wMTgsNi4wMTh2MTc1LjYyNyYjMTA7JiM5OyYjOTsmIzk7YzAsMy4zMS0yLjcwOCw2LjAxOC02LjAxOCw2LjAxOGgtMTVDMjI2LjE5LDE4OS4yMzEsMjI4Ljg5OCwxODYuNTIzLDIyOC44OTgsMTgzLjIxM3oiIGZpbGw9IiM2M0UyRTciLz4mI3hhOwk8L2c+JiN4YTsJPGc+JiN4YTsJCTxwYXRoIGQ9Ik0yMzcuODgsMS41NjhIMTguMTJjLTMuMzEsMC02LjAxOCwyLjcwOC02LjAxOCw2LjAxOFYyNC41NWgyMzEuNzk2VjcuNTg2JiMxMDsmIzk7JiM5OyYjOTtDMjQzLjg5OCw0LjI3NiwyNDEuMTksMS41NjgsMjM3Ljg4LDEuNTY4eiIgZmlsbD0iI0NFQ0VDRSIvPiYjeGE7CTwvZz4mI3hhOwk8Zz4mI3hhOwkJPHBhdGggZD0iTTMzLjEyLDEuNTY4aC0xNWMtMy4zMSwwLTYuMDE4LDIuNzA4LTYuMDE4LDYuMDE4VjI0LjU1aDE1VjcuNTg2QzI3LjEwMiw0LjI3NiwyOS44MSwxLjU2OCwzMy4xMiwxLjU2OHoiIGZpbGw9IiNBRkFGQUYiLz4mI3hhOwk8L2c+JiN4YTsJPGc+JiN4YTsJCTxwYXRoIGQ9Ik0yMjIuODgsMS41NjhoMTVjMy4zMSwwLDYuMDE4LDIuNzA4LDYuMDE4LDYuMDE4VjI0LjU1aC0xNVY3LjU4NiYjMTA7JiM5OyYjOTsmIzk7QzIyOC44OTgsNC4yNzYsMjI2LjE5LDEuNTY4LDIyMi44OCwxLjU2OHoiIGZpbGw9IiNFMkUyRTIiLz4mI3hhOwk8L2c+JiN4YTsJPGNpcmNsZSByPSIzLjg0MiIgY3k9IjEzLjA1OSIgY3g9IjIzLjA4MiIgZmlsbD0iIzYzQkNFNyIvPiYjeGE7CTxjaXJjbGUgcj0iMy44NDIiIGN5PSIxMy4wNTkiIGN4PSIzOC40MzIiIGZpbGw9IiNGOEFGMjMiLz4mI3hhOwk8Y2lyY2xlIHI9IjMuODQyIiBjeT0iMTMuMDU5IiBjeD0iNTMuNzgzIiBmaWxsPSIjRjQ2Mjc1Ii8+JiN4YTsJPGNpcmNsZSByPSI3My43NDciIGN5PSIxNjguOTk1IiBjeD0iMTI4IiBmaWxsPSIjRjhBRjIzIi8+JiN4YTsJPGc+JiN4YTsJCTxwYXRoIGQ9Ik0yMy4wODIsNy43MTdjLTIuOTQ2LDAtNS4zNDMsMi4zOTYtNS4zNDMsNS4zNDJzMi4zOTYsNS4zNDIsNS4zNDMsNS4zNDJjMi45NDUsMCw1LjM0Mi0yLjM5Niw1LjM0Mi01LjM0MiYjMTA7JiM5OyYjOTsmIzk7UzI2LjAyNyw3LjcxNywyMy4wODIsNy43MTd6IE0yMy4wODIsMTUuNDAxYy0xLjI5MiwwLTIuMzQzLTEuMDUxLTIuMzQzLTIuMzQyczEuMDUxLTIuMzQyLDIuMzQzLTIuMzQyJiMxMDsmIzk7JiM5OyYjOTtjMS4yOTEsMCwyLjM0MiwxLjA1MSwyLjM0MiwyLjM0MlMyNC4zNzMsMTUuNDAxLDIzLjA4MiwxNS40MDF6IiBmaWxsPSIjM0YzNjc5Ii8+JiN4YTsJCTxwYXRoIGQ9Ik0zOC40MzMsNy43MTdjLTIuOTQ2LDAtNS4zNDMsMi4zOTYtNS4zNDMsNS4zNDJzMi4zOTYsNS4zNDIsNS4zNDMsNS4zNDJjMi45NDUsMCw1LjM0Mi0yLjM5Niw1LjM0Mi01LjM0MiYjMTA7JiM5OyYjOTsmIzk7UzQxLjM3OCw3LjcxNywzOC40MzMsNy43MTd6IE0zOC40MzMsMTUuNDAxYy0xLjI5MiwwLTIuMzQzLTEuMDUxLTIuMzQzLTIuMzQyczEuMDUxLTIuMzQyLDIuMzQzLTIuMzQyJiMxMDsmIzk7JiM5OyYjOTtjMS4yOTEsMCwyLjM0MiwxLjA1MSwyLjM0MiwyLjM0MlMzOS43MjQsMTUuNDAxLDM4LjQzMywxNS40MDF6IiBmaWxsPSIjM0YzNjc5Ii8+JiN4YTsJCTxwYXRoIGQ9Ik01My43ODMsNy43MTdjLTIuOTQ1LDAtNS4zNDIsMi4zOTYtNS4zNDIsNS4zNDJzMi4zOTYsNS4zNDIsNS4zNDIsNS4zNDJzNS4zNDItMi4zOTYsNS4zNDItNS4zNDImIzEwOyYjOTsmIzk7JiM5O1M1Ni43MjksNy43MTcsNTMuNzgzLDcuNzE3eiBNNTMuNzgzLDE1LjQwMWMtMS4yOTEsMC0yLjM0Mi0xLjA1MS0yLjM0Mi0yLjM0MnMxLjA1MS0yLjM0MiwyLjM0Mi0yLjM0MnMyLjM0MiwxLjA1MSwyLjM0MiwyLjM0MiYjMTA7JiM5OyYjOTsmIzk7UzU1LjA3NCwxNS40MDEsNTMuNzgzLDE1LjQwMXoiIGZpbGw9IiMzRjM2NzkiLz4mI3hhOwkJPHBhdGggZD0iTTIwLjc0NywyNTIuOTMySDEuNTY4Yy0wLjgyOCwwLTEuNSwwLjY3MS0xLjUsMS41czAuNjcyLDEuNSwxLjUsMS41aDE5LjE3OWMwLjgyOCwwLDEuNS0wLjY3MSwxLjUtMS41JiMxMDsmIzk7JiM5OyYjOTtTMjEuNTc1LDI1Mi45MzIsMjAuNzQ3LDI1Mi45MzJ6IiBmaWxsPSIjM0YzNjc5Ii8+JiN4YTsJCTxwYXRoIGQ9Ik0yNTQuNDMyLDI1Mi45MzJoLTE5LjE3OWMtMC44MjgsMC0xLjUsMC42NzEtMS41LDEuNXMwLjY3MiwxLjUsMS41LDEuNWgxOS4xNzljMC44MjgsMCwxLjUtMC42NzEsMS41LTEuNSYjMTA7JiM5OyYjOTsmIzk7UzI1NS4yNiwyNTIuOTMyLDI1NC40MzIsMjUyLjkzMnoiIGZpbGw9IiMzRjM2NzkiLz4mI3hhOwkJPHBhdGggZD0iTTIyNC4zOSwyNTIuOTMySDMxLjYxYy0wLjgyOCwwLTEuNSwwLjY3MS0xLjUsMS41czAuNjcyLDEuNSwxLjUsMS41SDIyNC4zOWMwLjgyOCwwLDEuNS0wLjY3MSwxLjUtMS41JiMxMDsmIzk7JiM5OyYjOTtTMjI1LjIxOCwyNTIuOTMyLDIyNC4zOSwyNTIuOTMyeiIgZmlsbD0iIzNGMzY3OSIvPiYjeGE7CQk8cGF0aCBkPSJNMS41NjgsMjQ0LjI0MmgyNTIuODYzYzAuODI4LDAsMS41LTAuNjcxLDEuNS0xLjVzLTAuNjcyLTEuNS0xLjUtMS41SDE0OC45ODYmIzEwOyYjOTsmIzk7JiM5O2MyNC4zOTItNy4wOTcsNDMuNzA1LTI2LjIyMyw1MS4wNDgtNTAuNTExaDM3Ljg0NmM0LjE0NiwwLDcuNTE4LTMuMzczLDcuNTE4LTcuNTE4VjI0LjU1VjcuNTg2djAmIzEwOyYjOTsmIzk7JiM5O2MwLTIuMzMyLTEuMDY3LTQuNDE5LTIuNzM4LTUuNzk5Yy0xLjMtMS4wNzMtMi45NjYtMS43MTktNC43NzktMS43MTlIMTguMTJjLTEuODE0LDAtMy40NzksMC42NDYtNC43NzksMS43MTkmIzEwOyYjOTsmIzk7JiM5O2MtMS42NzEsMS4zOC0yLjczOCwzLjQ2Ny0yLjczOCw1Ljc5OXYwVjI0LjU1djE1OC42NjRjMCw0LjE0NSwzLjM3Miw3LjUxOCw3LjUxOCw3LjUxOGgzNy44NDYmIzEwOyYjOTsmIzk7JiM5O2M3LjM0MywyNC4yODgsMjYuNjU1LDQzLjQxNCw1MS4wNDgsNTAuNTExSDEuNTY4Yy0wLjgyOCwwLTEuNSwwLjY3MS0xLjUsMS41UzAuNzQsMjQ0LjI0MiwxLjU2OCwyNDQuMjQyeiBNMTMuNjAzLDcuNTg2JiMxMDsmIzk7JiM5OyYjOTtjMC0yLjQ5MSwyLjAyNi00LjUxOCw0LjUxOC00LjUxOGgyMTkuNzZjMi40OTEsMCw0LjUxOCwyLjAyNyw0LjUxOCw0LjUxOFYyMy4wNUgxMy42MDNWNy41ODZ6IE0xOC4xMiwxODcuNzMxJiMxMDsmIzk7JiM5OyYjOTtjLTIuNDkxLDAtNC41MTgtMi4wMjYtNC41MTgtNC41MThWMjYuMDVoMjI4Ljc5NXYxNTcuMTY0YzAsMi40OTEtMi4wMjYsNC41MTgtNC41MTgsNC41MThoLTM2Ljk5NSYjMTA7JiM5OyYjOTsmIzk7YzEuNTQxLTUuOTkyLDIuMzYyLTEyLjI3LDIuMzYyLTE4LjczNmMwLTQxLjQ5Mi0zMy43NTYtNzUuMjQ4LTc1LjI0Ny03NS4yNDhzLTc1LjI0NywzMy43NTYtNzUuMjQ3LDc1LjI0OCYjMTA7JiM5OyYjOTsmIzk7YzAsNi40NjYsMC44MjEsMTIuNzQ0LDIuMzYyLDE4LjczNkgxOC4xMnogTTU1Ljc5MSwxNzAuNDk1aDguNDU5YzAuODI4LDAsMS41LTAuNjcxLDEuNS0xLjVzLTAuNjcyLTEuNS0xLjUtMS41aC04LjQ1OSYjMTA7JiM5OyYjOTsmIzk7YzAuNzk0LTM4LjY0NSwzMi4wNjUtNjkuOTE2LDcwLjcwOS03MC43MDl2OC40NTljMCwwLjgyOSwwLjY3MiwxLjUsMS41LDEuNXMxLjUtMC42NzEsMS41LTEuNXYtOC40NTkmIzEwOyYjOTsmIzk7JiM5O2MzOC42NDQsMC43OTQsNjkuOTE1LDMyLjA2NSw3MC43MDksNzAuNzA5aC04LjQ1OWMtMC44MjgsMC0xLjUsMC42NzEtMS41LDEuNXMwLjY3MiwxLjUsMS41LDEuNWg4LjQ1OSYjMTA7JiM5OyYjOTsmIzk7Yy0wLjc5NCwzOC42NDUtMzIuMDY1LDY5LjkxNi03MC43MDksNzAuNzA5di04LjQ1OWMwLTAuODI5LTAuNjcyLTEuNS0xLjUtMS41cy0xLjUsMC42NzEtMS41LDEuNXY4LjQ1OSYjMTA7JiM5OyYjOTsmIzk7Qzg3Ljg1NiwyNDAuNDEsNTYuNTg1LDIwOS4xMzksNTUuNzkxLDE3MC40OTV6IiBmaWxsPSIjM0YzNjc5Ii8+JiN4YTsJCTxwYXRoIGQ9Ik0xMjgsMTcwLjQ5NWgzOC40MTNjMC44MjgsMCwxLjUtMC42NzEsMS41LTEuNXMtMC42NzItMS41LTEuNS0xLjVIMTI5LjVWMTE2LjRjMC0wLjgyOS0wLjY3Mi0xLjUtMS41LTEuNSYjMTA7JiM5OyYjOTsmIzk7cy0xLjUsMC42NzEtMS41LDEuNXY1Mi41OTRDMTI2LjUsMTY5LjgyMywxMjcuMTcyLDE3MC40OTUsMTI4LDE3MC40OTV6IiBmaWxsPSIjM0YzNjc5Ii8+JiN4YTsJCTxwYXRoIGQ9Ik0zNS40NjQsNDYuMDhoODAuOTE3YzAuODI4LDAsMS41LTAuNjcxLDEuNS0xLjVzLTAuNjcyLTEuNS0xLjUtMS41SDM1LjQ2NGMtMC44MjgsMC0xLjUsMC42NzEtMS41LDEuNSYjMTA7JiM5OyYjOTsmIzk7UzM0LjYzNiw0Ni4wOCwzNS40NjQsNDYuMDh6IiBmaWxsPSIjM0YzNjc5Ii8+JiN4YTsJCTxwYXRoIGQ9Ik0zNS40NjQsNjEuMzk4aDgwLjkxN2MwLjgyOCwwLDEuNS0wLjY3MSwxLjUtMS41cy0wLjY3Mi0xLjUtMS41LTEuNUgzNS40NjRjLTAuODI4LDAtMS41LDAuNjcxLTEuNSwxLjUmIzEwOyYjOTsmIzk7JiM5O1MzNC42MzYsNjEuMzk4LDM1LjQ2NCw2MS4zOTh6IiBmaWxsPSIjM0YzNjc5Ii8+JiN4YTsJCTxwYXRoIGQ9Ik0xMTcuODgxLDc1LjIxN2MwLTAuODI5LTAuNjcyLTEuNS0xLjUtMS41SDM1LjQ2NGMtMC44MjgsMC0xLjUsMC42NzEtMS41LDEuNXMwLjY3MiwxLjUsMS41LDEuNWg4MC45MTcmIzEwOyYjOTsmIzk7JiM5O0MxMTcuMjA5LDc2LjcxNywxMTcuODgxLDc2LjA0NiwxMTcuODgxLDc1LjIxN3oiIGZpbGw9IiMzRjM2NzkiLz4mI3hhOwkJPHBhdGggZD0iTTEzOS42MTksNDYuMDhoODAuOTE3YzAuODI4LDAsMS41LTAuNjcxLDEuNS0xLjVzLTAuNjcyLTEuNS0xLjUtMS41aC04MC45MTdjLTAuODI4LDAtMS41LDAuNjcxLTEuNSwxLjUmIzEwOyYjOTsmIzk7JiM5O1MxMzguNzkxLDQ2LjA4LDEzOS42MTksNDYuMDh6IiBmaWxsPSIjM0YzNjc5Ii8+JiN4YTsJCTxwYXRoIGQ9Ik0xMzkuNjE5LDYxLjM5OGg4MC45MTdjMC44MjgsMCwxLjUtMC42NzEsMS41LTEuNXMtMC42NzItMS41LTEuNS0xLjVoLTgwLjkxN2MtMC44MjgsMC0xLjUsMC42NzEtMS41LDEuNSYjMTA7JiM5OyYjOTsmIzk7UzEzOC43OTEsNjEuMzk4LDEzOS42MTksNjEuMzk4eiIgZmlsbD0iIzNGMzY3OSIvPiYjeGE7CQk8cGF0aCBkPSJNMTM5LjYxOSw3Ni43MTdoODAuOTE3YzAuODI4LDAsMS41LTAuNjcxLDEuNS0xLjVzLTAuNjcyLTEuNS0xLjUtMS41aC04MC45MTdjLTAuODI4LDAtMS41LDAuNjcxLTEuNSwxLjUmIzEwOyYjOTsmIzk7JiM5O1MxMzguNzkxLDc2LjcxNywxMzkuNjE5LDc2LjcxN3oiIGZpbGw9IiMzRjM2NzkiLz4mI3hhOwk8L2c+JiN4YTs8L2c+JiN4YTs8L3N2Zz4=;" vertex="1" parent="dyGQCXBNsjJ9LCaC6bJl-68">
          <mxGeometry x="17.5" y="28" width="60" height="60" as="geometry" />
        </mxCell>
        <mxCell id="dyGQCXBNsjJ9LCaC6bJl-71" value="" style="shape=image;verticalLabelPosition=bottom;labelBackgroundColor=default;verticalAlign=top;aspect=fixed;imageAspect=0;image=data:image/svg+xml,PHN2ZyB4bWxuczp4bGluaz0iaHR0cDovL3d3dy53My5vcmcvMTk5OS94bGluayIgeG1sbnM9Imh0dHA6Ly93d3cudzMub3JnLzIwMDAvc3ZnIiB4bWw6c3BhY2U9InByZXNlcnZlIiBzdHlsZT0iZW5hYmxlLWJhY2tncm91bmQ6bmV3IDAgMCA0OTIgNDkyOyIgdmlld0JveD0iMCAwIDQ5MiA0OTIiIHk9IjBweCIgeD0iMHB4IiB2ZXJzaW9uPSIxLjEiPiYjeGE7PGcgaWQ9Ik1hc3Rlcl9MYXllcl8yIj4mI3hhOzwvZz4mI3hhOzxnIGlkPSJMYXllcl8xIj4mI3hhOwk8Zz4mI3hhOwkJPGc+JiN4YTsJCQk8Zz4mI3hhOwkJCQk8Zz4mI3hhOwkJCQkJPGc+JiN4YTsJCQkJCQk8Zz4mI3hhOwkJCQkJCQk8cGF0aCBkPSJNMjc2Ljk4LDQzMS4wNmMtODQuODMyLDAtMTUzLjYtNjguNzY4LTE1My42LTE1My42JiMxMDsmIzk7JiM5OyYjOTsmIzk7JiM5OyYjOTsmIzk7JiM5O2w2MS40NCwwYzAtMTAuMTgsOC4yNTMtMTguNDMyLDE4LjQzMi0xOC40MzJjNS4wODksMCw5LjY5NywyLjA2NCwxMy4wMzQsNS4zOThjMy4zMzUsMy4zMzcsNS4zOTgsNy45NDUsNS4zOTgsMTMuMDM0aDU1LjI5NiYjMTA7JiM5OyYjOTsmIzk7JiM5OyYjOTsmIzk7JiM5OyYjOTtWNDMxLjA2eiIgc3R5bGU9ImZpbGwtcnVsZTpldmVub2RkO2NsaXAtcnVsZTpldmVub2RkO2ZpbGw6IzBCNzk5RDsiLz4mI3hhOwkJCQkJCTwvZz4mI3hhOwkJCQkJCTxnPiYjeGE7CQkJCQkJCTxwYXRoIGQ9Ik00MzAuNTgsMjc3LjQ2YzAsODQuODMyLTY4Ljc2OCwxNTMuNi0xNTMuNiwxNTMuNiYjMTA7JiM5OyYjOTsmIzk7JiM5OyYjOTsmIzk7JiM5OyYjOTt2LTYxLjQ0Yy0xMC4xOCwwLTE4LjQzMi04LjI1My0xOC40MzItMTguNDMyYzAtNS4wODksMi4wNjQtOS42OTcsNS4zOTgtMTMuMDM0YzMuMzM3LTMuMzM1LDcuOTQ1LTUuMzk4LDEzLjAzNC01LjM5OCYjMTA7JiM5OyYjOTsmIzk7JiM5OyYjOTsmIzk7JiM5OyYjOTtsMC01NS4yOTZINDMwLjU4eiIgc3R5bGU9ImZpbGwtcnVsZTpldmVub2RkO2NsaXAtcnVsZTpldmVub2RkO2ZpbGw6I0ZGNEE0QTsiLz4mI3hhOwkJCQkJCTwvZz4mI3hhOwkJCQkJCTxnPiYjeGE7CQkJCQkJCTxwYXRoIGQ9Ik00MzAuNTgsMjc3LjQ2aC02MS40NCYjMTA7JiM5OyYjOTsmIzk7JiM5OyYjOTsmIzk7JiM5OyYjOTtjMCwxMC4xOC04LjI1MywxOC40MzItMTguNDMyLDE4LjQzMmMtNS4wODksMC05LjY5Ny0yLjA2NC0xMy4wMzQtNS4zOThjLTMuMzM1LTMuMzM3LTUuMzk4LTcuOTQ1LTUuMzk4LTEzLjAzNEgyNzYuOTgmIzEwOyYjOTsmIzk7JiM5OyYjOTsmIzk7JiM5OyYjOTsmIzk7di00OS4xNTJjNS4wODksMCw5LjY5Ny0yLjA2NCwxMy4wMzQtNS4zOThjMy4zMzUtMy4zMzcsNS4zOTgtNy45NDUsNS4zOTgtMTMuMDM0YzAtMTAuMTgtOC4yNTMtMTguNDMyLTE4LjQzMi0xOC40MzJWMTIzLjg2JiMxMDsmIzk7JiM5OyYjOTsmIzk7JiM5OyYjOTsmIzk7JiM5O0MzNjEuODEyLDEyMy44Niw0MzAuNTgsMTkyLjYyOCw0MzAuNTgsMjc3LjQ2eiIgc3R5bGU9ImZpbGwtcnVsZTpldmVub2RkO2NsaXAtcnVsZTpldmVub2RkO2ZpbGw6I0ZGRjY4RTsiLz4mI3hhOwkJCQkJCTwvZz4mI3hhOwkJCQkJCTxnPiYjeGE7CQkJCQkJCTxwYXRoIGQ9Ik0yMzMuOTcyLDE0OC40MzZjMCw1LjA4OS0yLjA2NCw5LjY5Ny01LjM5OCwxMy4wMzQmIzEwOyYjOTsmIzk7JiM5OyYjOTsmIzk7JiM5OyYjOTsmIzk7Yy0zLjMzNywzLjMzNC03Ljk0NSw1LjM5OC0xMy4wMzQsNS4zOTh2NDkuMTUyaC01NS4yOTZjMC01LjA4OS0yLjA2NC05LjY5Ny01LjM5OC0xMy4wMzQmIzEwOyYjOTsmIzk7JiM5OyYjOTsmIzk7JiM5OyYjOTsmIzk7Yy0zLjMzNy0zLjMzNS03Ljk0NS01LjM5OC0xMy4wMzQtNS4zOThjLTEwLjE4LDAtMTguNDMyLDguMjUyLTE4LjQzMiwxOC40MzJINjEuOTRjMC04NC44MzIsNjguNzY4LTE1My42LDE1My42LTE1My42JiMxMDsmIzk7JiM5OyYjOTsmIzk7JiM5OyYjOTsmIzk7JiM5O3Y2Ny41ODRDMjI1LjcyLDEzMC4wMDQsMjMzLjk3MiwxMzguMjU2LDIzMy45NzIsMTQ4LjQzNnoiIHN0eWxlPSJmaWxsLXJ1bGU6ZXZlbm9kZDtjbGlwLXJ1bGU6ZXZlbm9kZDtmaWxsOiMwMEZGOTQ7Ii8+JiN4YTsJCQkJCQk8L2c+JiN4YTsJCQkJCTwvZz4mI3hhOwkJCQkJPGc+JiN4YTsJCQkJCQk8Zz4mI3hhOwkJCQkJCQk8Zz4mI3hhOwkJCQkJCQkJPHBhdGggZD0iTTEyMy4zOCwxNjYuNjdjLTEuNTIyLDAtMy4wNDMtMC41ODEtNC4yMDQtMS43NDEmIzEwOyYjOTsmIzk7JiM5OyYjOTsmIzk7JiM5OyYjOTsmIzk7JiM5O2wtMTIuMjg4LTEyLjI4OGMtMS4xMTUtMS4xMTUtMS43NDEtMi42MjctMS43NDEtNC4yMDRzMC42MjctMy4wODksMS43NDEtNC4yMDRsMTIuMjg4LTEyLjI4OCYjMTA7JiM5OyYjOTsmIzk7JiM5OyYjOTsmIzk7JiM5OyYjOTsmIzk7YzIuMzIyLTIuMzIyLDYuMDg3LTIuMzIyLDguNDA5LDBjMi4zMjIsMi4zMjIsMi4zMjIsNi4wODcsMCw4LjQwOWwtOC4wODQsOC4wODRsOC4wODQsOC4wODQmIzEwOyYjOTsmIzk7JiM5OyYjOTsmIzk7JiM5OyYjOTsmIzk7JiM5O2MyLjMyMiwyLjMyMiwyLjMyMiw2LjA4NiwwLDguNDA5QzEyNi40MjQsMTY2LjA4OSwxMjQuOTAyLDE2Ni42NywxMjMuMzgsMTY2LjY3eiIgc3R5bGU9ImZpbGwtcnVsZTpldmVub2RkO2NsaXAtcnVsZTpldmVub2RkO2ZpbGw6IzBCNzk5RDsiLz4mI3hhOwkJCQkJCQk8L2c+JiN4YTsJCQkJCQkJPGc+JiN4YTsJCQkJCQkJCTxwYXRoIGQ9Ik0xODQuODIsMTY2LjY3Yy0xLjUyMiwwLTMuMDQzLTAuNTgtNC4yMDQtMS43NDEmIzEwOyYjOTsmIzk7JiM5OyYjOTsmIzk7JiM5OyYjOTsmIzk7JiM5O2MtMi4zMjItMi4zMjItMi4zMjItNi4wODcsMC04LjQwOWw4LjA4My04LjA4NGwtOC4wODMtOC4wODRjLTIuMzIyLTIuMzIyLTIuMzIyLTYuMDg3LDAtOC40MDkmIzEwOyYjOTsmIzk7JiM5OyYjOTsmIzk7JiM5OyYjOTsmIzk7JiM5O2MyLjMyMi0yLjMyMiw2LjA4Ny0yLjMyMiw4LjQwOSwwbDEyLjI4OCwxMi4yODhjMS4xMTUsMS4xMTUsMS43NDEsMi42MjgsMS43NDEsNC4yMDRzLTAuNjI2LDMuMDg5LTEuNzQxLDQuMjA0JiMxMDsmIzk7JiM5OyYjOTsmIzk7JiM5OyYjOTsmIzk7JiM5OyYjOTtsLTEyLjI4OCwxMi4yODhDMTg3Ljg2NCwxNjYuMDg5LDE4Ni4zNDIsMTY2LjY3LDE4NC44MiwxNjYuNjd6IiBzdHlsZT0iZmlsbC1ydWxlOmV2ZW5vZGQ7Y2xpcC1ydWxlOmV2ZW5vZGQ7ZmlsbDojMEI3OTlEOyIvPiYjeGE7CQkJCQkJCTwvZz4mI3hhOwkJCQkJCQk8Zz4mI3hhOwkJCQkJCQkJPHBhdGggZD0iTTE2MC4yNDksMTY2LjY3MWMtMi4xODEsMC00LjI4MS0xLjIwNC01LjMyMy0zLjI4OCYjMTA7JiM5OyYjOTsmIzk7JiM5OyYjOTsmIzk7JiM5OyYjOTsmIzk7bC0xMi4yODgtMjQuNTc2Yy0xLjQ2OS0yLjkzNy0wLjI3OC02LjUwOSwyLjY1OS03Ljk3N2MyLjkzNy0xLjQ2OSw2LjUwOS0wLjI3OCw3Ljk3NywyLjY1OWwxMi4yODgsMjQuNTc2JiMxMDsmIzk7JiM5OyYjOTsmIzk7JiM5OyYjOTsmIzk7JiM5OyYjOTtjMS40NjksMi45MzcsMC4yNzgsNi41MDktMi42NTksNy45NzdDMTYyLjA1LDE2Ni40NjksMTYxLjE0MiwxNjYuNjcxLDE2MC4yNDksMTY2LjY3MXoiIHN0eWxlPSJmaWxsLXJ1bGU6ZXZlbm9kZDtjbGlwLXJ1bGU6ZXZlbm9kZDtmaWxsOiMwQjc5OUQ7Ii8+JiN4YTsJCQkJCQkJPC9nPiYjeGE7CQkJCQkJPC9nPiYjeGE7CQkJCQk8L2c+JiN4YTsJCQkJPC9nPiYjeGE7CQkJPC9nPiYjeGE7CQk8L2c+JiN4YTsJPC9nPiYjeGE7PC9nPiYjeGE7PC9zdmc+;" vertex="1" parent="dyGQCXBNsjJ9LCaC6bJl-68">
          <mxGeometry x="76" y="18" width="80" height="80" as="geometry" />
        </mxCell>
        <mxCell id="dyGQCXBNsjJ9LCaC6bJl-21" value="&lt;span style=&quot;&quot;&gt;3. Unit Test against API&lt;/span&gt;" style="rounded=0;whiteSpace=wrap;html=1;fontColor=#FFFFFF;fontStyle=0;verticalAlign=top;align=left;fillColor=none;dashed=1;" vertex="1" parent="1">
          <mxGeometry x="90" y="1130" width="190" height="260" as="geometry" />
        </mxCell>
        <mxCell id="dyGQCXBNsjJ9LCaC6bJl-19" value="&lt;span style=&quot;&quot;&gt;2. Unit Test against Database&lt;/span&gt;" style="rounded=0;whiteSpace=wrap;html=1;fontColor=#FFFFFF;fontStyle=0;verticalAlign=top;align=left;fillColor=none;dashed=1;" vertex="1" parent="1">
          <mxGeometry x="110" y="1160" width="160" height="170" as="geometry" />
        </mxCell>
        <mxCell id="dyGQCXBNsjJ9LCaC6bJl-9" value="&lt;span style=&quot;&quot;&gt;Unit Test against In Memory DB&lt;/span&gt;" style="rounded=0;whiteSpace=wrap;html=1;fontColor=#FFFFFF;fontStyle=0;verticalAlign=top;align=left;dashed=1;" vertex="1" parent="1">
          <mxGeometry x="140" y="1460" width="330" height="80" as="geometry" />
        </mxCell>
        <mxCell id="dyGQCXBNsjJ9LCaC6bJl-10" value="&lt;span style=&quot;font-weight: normal;&quot;&gt;Test Logic&lt;/span&gt;" style="rounded=0;whiteSpace=wrap;html=1;fontColor=#ffffff;fontStyle=1;verticalAlign=middle;align=center;fillColor=#60a917;strokeColor=#2D7600;" vertex="1" parent="1">
          <mxGeometry x="160" y="1490" width="90" height="40" as="geometry" />
        </mxCell>
        <mxCell id="dyGQCXBNsjJ9LCaC6bJl-11" value="&lt;span style=&quot;font-weight: normal;&quot;&gt;Test Entites&lt;/span&gt;" style="rounded=0;whiteSpace=wrap;html=1;fontColor=#ffffff;fontStyle=1;verticalAlign=middle;align=center;fillColor=#60a917;strokeColor=#2D7600;" vertex="1" parent="1">
          <mxGeometry x="260" y="1490" width="90" height="40" as="geometry" />
        </mxCell>
        <mxCell id="dyGQCXBNsjJ9LCaC6bJl-12" value="&lt;span style=&quot;font-weight: normal;&quot;&gt;Test In-memory CRUD&lt;/span&gt;" style="rounded=0;whiteSpace=wrap;html=1;fontColor=#ffffff;fontStyle=1;verticalAlign=middle;align=center;fillColor=#60a917;strokeColor=#2D7600;" vertex="1" parent="1">
          <mxGeometry x="370" y="1490" width="90" height="40" as="geometry" />
        </mxCell>
        <mxCell id="dyGQCXBNsjJ9LCaC6bJl-13" value="&lt;span style=&quot;&quot;&gt;Unit Test against Database&lt;/span&gt;" style="rounded=0;whiteSpace=wrap;html=1;fontColor=#FFFFFF;fontStyle=0;verticalAlign=top;align=left;fillColor=none;dashed=1;" vertex="1" parent="1">
          <mxGeometry x="120" y="1420" width="240" height="200" as="geometry" />
        </mxCell>
        <mxCell id="dyGQCXBNsjJ9LCaC6bJl-14" value="&lt;span style=&quot;font-weight: normal;&quot;&gt;Test Database CRUD&lt;/span&gt;" style="rounded=0;whiteSpace=wrap;html=1;fontColor=#ffffff;fontStyle=1;verticalAlign=middle;align=center;fillColor=#60a917;strokeColor=#2D7600;" vertex="1" parent="1">
          <mxGeometry x="160" y="1550" width="90" height="40" as="geometry" />
        </mxCell>
        <mxCell id="dyGQCXBNsjJ9LCaC6bJl-15" value="&lt;span style=&quot;&quot;&gt;1. Unit Test against In Memory DB&lt;/span&gt;" style="rounded=0;whiteSpace=wrap;html=1;fontColor=#FFFFFF;fontStyle=0;verticalAlign=top;align=left;dashed=1;" vertex="1" parent="1">
          <mxGeometry x="130" y="1190" width="260" height="80" as="geometry" />
        </mxCell>
        <mxCell id="dyGQCXBNsjJ9LCaC6bJl-16" value="&lt;span style=&quot;font-weight: normal;&quot;&gt;Test Code&lt;/span&gt;" style="rounded=0;whiteSpace=wrap;html=1;fontColor=#ffffff;fontStyle=1;verticalAlign=middle;align=center;fillColor=#60a917;strokeColor=#2D7600;" vertex="1" parent="1">
          <mxGeometry x="150" y="1220" width="90" height="40" as="geometry" />
        </mxCell>
        <mxCell id="dyGQCXBNsjJ9LCaC6bJl-18" value="&lt;span style=&quot;font-weight: normal;&quot;&gt;Test In-memory DB&lt;/span&gt;" style="rounded=0;whiteSpace=wrap;html=1;fontColor=#ffffff;fontStyle=1;verticalAlign=middle;align=center;fillColor=#60a917;strokeColor=#2D7600;" vertex="1" parent="1">
          <mxGeometry x="280" y="1220" width="90" height="40" as="geometry" />
        </mxCell>
        <mxCell id="dyGQCXBNsjJ9LCaC6bJl-20" value="&lt;span style=&quot;font-weight: normal;&quot;&gt;Test DB&lt;/span&gt;" style="rounded=0;whiteSpace=wrap;html=1;fontColor=#ffffff;fontStyle=1;verticalAlign=middle;align=center;fillColor=#60a917;strokeColor=#2D7600;" vertex="1" parent="1">
          <mxGeometry x="150" y="1280" width="90" height="40" as="geometry" />
        </mxCell>
        <mxCell id="dyGQCXBNsjJ9LCaC6bJl-22" value="&lt;span style=&quot;font-weight: normal;&quot;&gt;Test API&lt;/span&gt;" style="rounded=0;whiteSpace=wrap;html=1;fontColor=#ffffff;fontStyle=1;verticalAlign=middle;align=center;fillColor=#60a917;strokeColor=#2D7600;" vertex="1" parent="1">
          <mxGeometry x="150" y="1340" width="90" height="40" as="geometry" />
        </mxCell>
        <mxCell id="dyGQCXBNsjJ9LCaC6bJl-41" value="" style="shape=image;verticalLabelPosition=bottom;labelBackgroundColor=default;verticalAlign=top;aspect=fixed;imageAspect=0;image=data:image/svg+xml,PHN2ZyB4bWxuczp4bGluaz0iaHR0cDovL3d3dy53My5vcmcvMTk5OS94bGluayIgeG1sbnM9Imh0dHA6Ly93d3cudzMub3JnLzIwMDAvc3ZnIiB4bWw6c3BhY2U9InByZXNlcnZlIiBzdHlsZT0iZW5hYmxlLWJhY2tncm91bmQ6bmV3IDAgMCA0OTIgNDkyOyIgdmlld0JveD0iMCAwIDQ5MiA0OTIiIHk9IjBweCIgeD0iMHB4IiB2ZXJzaW9uPSIxLjEiPiYjeGE7PGcgaWQ9Ik1hc3Rlcl9MYXllcl8yIj4mI3hhOzwvZz4mI3hhOzxnIGlkPSJMYXllcl8xIj4mI3hhOwk8Zz4mI3hhOwkJPGc+JiN4YTsJCQk8Zz4mI3hhOwkJCQk8cGF0aCBkPSJNMzMyLjI3NiwzOTcuNzU5Yy0zLjI4NCwwLTUuOTQ2LTIuNjYyLTUuOTQ2LTUuOTQ2di0zOC4xNjcmIzEwOyYjOTsmIzk7JiM5OyYjOTsmIzk7bC0yNC4wNjEtMjQuMDYxYy0yLjMyMi0yLjMyMi0yLjMyMi02LjA4NywwLTguNDA5YzIuMzIyLTIuMzIyLDYuMDg3LTIuMzIyLDguNDA5LDBsMjUuODAyLDI1LjgwMiYjMTA7JiM5OyYjOTsmIzk7JiM5OyYjOTtjMS4xMTUsMS4xMTUsMS43NDEsMi42MjgsMS43NDEsNC4yMDR2NDAuNjI5QzMzOC4yMjIsMzk1LjA5NiwzMzUuNTYsMzk3Ljc1OSwzMzIuMjc2LDM5Ny43NTl6IiBzdHlsZT0iZmlsbC1ydWxlOmV2ZW5vZGQ7Y2xpcC1ydWxlOmV2ZW5vZGQ7ZmlsbDojQjREMkQ3OyIvPiYjeGE7CQkJCTxwYXRoIGQ9Ik0yNzEuMDM0LDQxNi4yYy0zLjI4NCwwLTUuOTQ2LTIuNjYyLTUuOTQ2LTUuOTQ2di0yNC4wNTcmIzEwOyYjOTsmIzk7JiM5OyYjOTsmIzk7bC0xNC4zNjctNC43ODljLTIuNDI4LTAuODA5LTQuMDY1LTMuMDgyLTQuMDY1LTUuNjQxdi0yOC4zNDJjMC0zLjI4NCwyLjY2Mi01Ljk0Niw1Ljk0Ni01Ljk0NmMzLjI4NCwwLDUuOTQ2LDIuNjYyLDUuOTQ2LDUuOTQ2JiMxMDsmIzk7JiM5OyYjOTsmIzk7JiM5O3YyNC4wNTZsMTQuMzY3LDQuNzg5YzIuNDI4LDAuODA5LDQuMDY2LDMuMDgxLDQuMDY2LDUuNjQxdjI4LjM0MkMyNzYuOTgsNDEzLjUzOCwyNzQuMzE4LDQxNi4yLDI3MS4wMzQsNDE2LjJ6IiBzdHlsZT0iZmlsbC1ydWxlOmV2ZW5vZGQ7Y2xpcC1ydWxlOmV2ZW5vZGQ7ZmlsbDojQjREMkQ3OyIvPiYjeGE7CQkJCTxwYXRoIGQ9Ik0yMjEuNDg2LDQxNi4xOWMtMy4yODQsMC01Ljk0Ni0yLjY2Mi01Ljk0Ni01Ljk0NnYtMjguMzQyJiMxMDsmIzk7JiM5OyYjOTsmIzk7JiM5O2MwLTIuNTU5LDEuNjM4LTQuODMxLDQuMDY2LTUuNjQxbDE0LjM2Ni00Ljc4OXYtMjQuMDU2YzAtMy4yODQsMi42NjItNS45NDYsNS45NDYtNS45NDZjMy4yODQsMCw1Ljk0NSwyLjY2Miw1Ljk0NSw1Ljk0NiYjMTA7JiM5OyYjOTsmIzk7JiM5OyYjOTt2MjguMzQyYzAsMi41NTktMS42MzcsNC44MzEtNC4wNjUsNS42NDFsLTE0LjM2Niw0Ljc4OXYyNC4wNTdDMjI3LjQzMiw0MTMuNTI5LDIyNC43Nyw0MTYuMTksMjIxLjQ4Niw0MTYuMTl6IiBzdHlsZT0iZmlsbC1ydWxlOmV2ZW5vZGQ7Y2xpcC1ydWxlOmV2ZW5vZGQ7ZmlsbDojQjREMkQ3OyIvPiYjeGE7CQkJCTxwYXRoIGQ9Ik0xNjAuMjQ0LDM5Ny43NTljLTMuMjg0LDAtNS45NDYtMi42NjItNS45NDYtNS45NDZ2LTQwLjYzJiMxMDsmIzk7JiM5OyYjOTsmIzk7JiM5O2MwLTEuNTc3LDAuNjI2LTMuMDg5LDEuNzQxLTQuMjA0bDI1LjgwMy0yNS44MDJjMi4zMjItMi4zMjIsNi4wODYtMi4zMjIsOC40MDksMGMyLjMyMiwyLjMyMiwyLjMyMiw2LjA4NiwwLDguNDA5JiMxMDsmIzk7JiM5OyYjOTsmIzk7JiM5O2wtMjQuMDYxLDI0LjA2MXYzOC4xNjdDMTY2LjE5LDM5NS4wOTYsMTYzLjUyOCwzOTcuNzU5LDE2MC4yNDQsMzk3Ljc1OXoiIHN0eWxlPSJmaWxsLXJ1bGU6ZXZlbm9kZDtjbGlwLXJ1bGU6ZXZlbm9kZDtmaWxsOiNCNEQyRDc7Ii8+JiN4YTsJCQkJPHBhdGggZD0iTTM0NC41NjQsMzk0LjE5MWMwLTYuNzY4LTUuNTItMTIuMjg4LTEyLjI4OC0xMi4yODgmIzEwOyYjOTsmIzk7JiM5OyYjOTsmIzk7cy0xMi4yODgsNS41Mi0xMi4yODgsMTIuMjg4czUuNTIsMTIuMjg4LDEyLjI4OCwxMi4yODhTMzQ0LjU2NCw0MDAuOTU5LDM0NC41NjQsMzk0LjE5MXoiIHN0eWxlPSJmaWxsLXJ1bGU6ZXZlbm9kZDtjbGlwLXJ1bGU6ZXZlbm9kZDtmaWxsOiMwQjc5OUQ7Ii8+JiN4YTsJCQkJPHBhdGggZD0iTTI4My4zMjIsNDEyLjYzMmMwLTYuNzY4LTUuNTItMTIuMjg4LTEyLjI4OC0xMi4yODgmIzEwOyYjOTsmIzk7JiM5OyYjOTsmIzk7cy0xMi4yODgsNS41Mi0xMi4yODgsMTIuMjg4czUuNTIsMTIuMjg4LDEyLjI4OCwxMi4yODhTMjgzLjMyMiw0MTkuNCwyODMuMzIyLDQxMi42MzJ6IiBzdHlsZT0iZmlsbC1ydWxlOmV2ZW5vZGQ7Y2xpcC1ydWxlOmV2ZW5vZGQ7ZmlsbDojMEI3OTlEOyIvPiYjeGE7CQkJCTxwYXRoIGQ9Ik0yMzMuNzc0LDQxMi42MjNjMC02Ljc2OC01LjUyLTEyLjI4OC0xMi4yODgtMTIuMjg4JiMxMDsmIzk7JiM5OyYjOTsmIzk7JiM5O2MtNi43NjgsMC0xMi4yODgsNS41Mi0xMi4yODgsMTIuMjg4czUuNTIsMTIuMjg4LDEyLjI4OCwxMi4yODhDMjI4LjI1NCw0MjQuOTExLDIzMy43NzQsNDE5LjM5MSwyMzMuNzc0LDQxMi42MjN6IiBzdHlsZT0iZmlsbC1ydWxlOmV2ZW5vZGQ7Y2xpcC1ydWxlOmV2ZW5vZGQ7ZmlsbDojMEI3OTlEOyIvPiYjeGE7CQkJCTxwYXRoIGQ9Ik0xNzIuNTMzLDM5NC4xOTFjMC02Ljc2OC01LjUyLTEyLjI4OC0xMi4yODgtMTIuMjg4JiMxMDsmIzk7JiM5OyYjOTsmIzk7JiM5O3MtMTIuMjg4LDUuNTItMTIuMjg4LDEyLjI4OHM1LjUyLDEyLjI4OCwxMi4yODgsMTIuMjg4UzE3Mi41MzMsNDAwLjk1OSwxNzIuNTMzLDM5NC4xOTF6IiBzdHlsZT0iZmlsbC1ydWxlOmV2ZW5vZGQ7Y2xpcC1ydWxlOmV2ZW5vZGQ7ZmlsbDojMEI3OTlEOyIvPiYjeGE7CQkJCTxwYXRoIGQ9Ik0zMzguNDIsMjQyLjk3djM0LjQ4NWgtMTkuNDU1JiMxMDsmIzk7JiM5OyYjOTsmIzk7JiM5O2MtMS44ODMsMTEuMjAzLTYuMjgzLDIxLjU0OS0xMi42MDgsMzAuNDNsMTMuNzYsMTMuNzZsLTguNjg4LDguNjkxbC04LjY5MSw4LjY4OGwtMTMuNzYtMTMuNzYmIzEwOyYjOTsmIzk7JiM5OyYjOTsmIzk7Yy04Ljg4Miw2LjMyNS0xOS4yMjcsMTAuNzI1LTMwLjQzLDEyLjYwOHYxOS40NTVsLTI0LjU3NiwwLjAwMXYtMTkuNDU1Yy0xMS4yMDMtMS44ODMtMjEuNTQ5LTYuMjgzLTMwLjQzLTEyLjYwOGwtMTMuNzYsMTMuNzYmIzEwOyYjOTsmIzk7JiM5OyYjOTsmIzk7bC04LjY5MS04LjY4OGwtOC42ODgtOC42OTFsMTMuNzYtMTMuNzZjLTYuMzI1LTguODgyLTEwLjcyNS0xOS4yMjctMTIuNjA4LTMwLjQzbC0xOS40NTYtMC4wMDFWMjQyLjk3aDU1LjI5NnYyMi4xOTcmIzEwOyYjOTsmIzk7JiM5OyYjOTsmIzk7YzAsMjAuMzU5LDE2LjUwNCwzNi44NjQsMzYuODY0LDM2Ljg2NGMyMC4zNiwwLDM2Ljg2NC0xNi41MDQsMzYuODY0LTM2Ljg2NFYyNDIuOTdIMzM4LjQyeiIgc3R5bGU9ImZpbGwtcnVsZTpldmVub2RkO2NsaXAtcnVsZTpldmVub2RkO2ZpbGw6I0UxRUJGMDsiLz4mI3hhOwkJCQk8cGF0aCBkPSJNNDE5Ljc4MywxODkuOTQ4YzYuNjY5LDYuNjcyLDEwLjc5NywxNS44ODgsMTAuNzk3LDI2LjA2NyYjMTA7JiM5OyYjOTsmIzk7JiM5OyYjOTtjMCwyMC4zNi0xNi41MDQsMzYuODY0LTM2Ljg2NCwzNi44NjRIMzM4LjQyaC01NS4yOTZoLTczLjcyOEgxNTQuMUg5OC44MDRjLTEwLjE3OSwwLTE5LjM5Ni00LjEyNy0yNi4wNjctMTAuNzk2JiMxMDsmIzk7JiM5OyYjOTsmIzk7JiM5O2MtNi42NjktNi42NzItMTAuNzk3LTE1Ljg4OC0xMC43OTctMjYuMDY3YzAtMjAuMzU5LDE2LjUwNC0zNi44NjQsMzYuODY0LTM2Ljg2NGg2LjQ4NmMtMC4yMjMtMi4wMTctMC4zNDItNC4wNjgtMC4zNDItNi4xNDQmIzEwOyYjOTsmIzk7JiM5OyYjOTsmIzk7YzAtMzAuNTM5LDI0Ljc1Ny01NS4yOTYsNTUuMjk2LTU1LjI5NmM0LjAzNiwwLDcuOTY3LDAuNDM2LDExLjc1NSwxLjI1NmMxMS43MjgtMjkuNTI4LDQwLjU1NS01MC40MDgsNzQuMjYtNTAuNDA4JiMxMDsmIzk7JiM5OyYjOTsmIzk7JiM5O2MzMy43MDUsMCw2Mi41MzMsMjAuODgsNzQuMjYxLDUwLjQwOGMzLjc4OC0wLjgyLDcuNzItMS4yNTYsMTEuNzU2LTEuMjU2YzMwLjUzOSwwLDU1LjI5NiwyNC43NTcsNTUuMjk2LDU1LjI5NiYjMTA7JiM5OyYjOTsmIzk7JiM5OyYjOTtjMCwyLjA3Ni0wLjExOSw0LjEyNy0wLjM0Miw2LjE0NGw2LjQ4NiwwQzQwMy44OTYsMTc5LjE1Miw0MTMuMTEyLDE4My4yNzksNDE5Ljc4MywxODkuOTQ4eiIgc3R5bGU9ImZpbGwtcnVsZTpldmVub2RkO2NsaXAtcnVsZTpldmVub2RkO2ZpbGw6IzBCNzk5RDsiLz4mI3hhOwkJCQk8cGF0aCBkPSJNMjkyLjI0OSwxMjMuNjU4Yy0xLjkxOCwwLTMuNzk5LTAuOTI2LTQuOTQ2LTIuNjM5JiMxMDsmIzk7JiM5OyYjOTsmIzk7JiM5O2MtOS4xOTUtMTMuNzM3LTI0LjUzNy0yMS45MzctNDEuMDQyLTIxLjkzN2MtMTYuNTA1LDAtMzEuODQ4LDguMjAxLTQxLjA0MiwyMS45MzdjLTEuODI2LDIuNzI5LTUuNTIsMy40NjEtOC4yNDgsMS42MzQmIzEwOyYjOTsmIzk7JiM5OyYjOTsmIzk7Yy0yLjcyOS0xLjgyNi0zLjQ2LTUuNTE5LTEuNjM0LTguMjQ4YzExLjQwNi0xNy4wNDEsMzAuNDQzLTI3LjIxNSw1MC45MjQtMjcuMjE1YzIwLjQ4MSwwLDM5LjUxOCwxMC4xNzQsNTAuOTI0LDI3LjIxNSYjMTA7JiM5OyYjOTsmIzk7JiM5OyYjOTtjMS44MjcsMi43MjksMS4wOTUsNi40MjItMS42MzQsOC4yNDhDMjk0LjUzNSwxMjMuMzMzLDI5My4zODYsMTIzLjY1OCwyOTIuMjQ5LDEyMy42NTh6IiBzdHlsZT0iZmlsbC1ydWxlOmV2ZW5vZGQ7Y2xpcC1ydWxlOmV2ZW5vZGQ7ZmlsbDojOTlGRkZBOyIvPiYjeGE7CQkJCTxwYXRoIGQ9Ik0yMDMuMjUyLDE2MC45MThjLTEzLjQ0MiwwLTI0LjM3OCwxMC45MzYtMjQuMzc4LDI0LjM3OCYjMTA7JiM5OyYjOTsmIzk7JiM5OyYjOTt2NDMuMDA4YzAsMy4yODQsMi42NjIsNS45NDYsNS45NDYsNS45NDZjMy4yODQsMCw1Ljk0Ni0yLjY2Miw1Ljk0Ni01Ljk0NnYtMTguNjNoMjQuOTcydjE4LjYzYzAsMy4yODQsMi42NjIsNS45NDYsNS45NDYsNS45NDYmIzEwOyYjOTsmIzk7JiM5OyYjOTsmIzk7YzMuMjg0LDAsNS45NDYtMi42NjIsNS45NDYtNS45NDZ2LTQzLjAwOGMwLTYuNTA5LTIuNTM1LTEyLjYzLTcuMTQxLTE3LjI0QzIxNS44ODIsMTYzLjQ1MywyMDkuNzYxLDE2MC45MTgsMjAzLjI1MiwxNjAuOTE4JiMxMDsmIzk7JiM5OyYjOTsmIzk7JiM5O0wyMDMuMjUyLDE2MC45MTh6IE0xOTAuNzY2LDE5Ny43ODJ2LTEyLjQ4NmMwLTYuODg1LDUuNjAxLTEyLjQ4NiwxMi40ODYtMTIuNDg2YzMuMzM0LDAsNi40NywxLjI5OSw4LjgyOCwzLjY1NiYjMTA7JiM5OyYjOTsmIzk7JiM5OyYjOTtjMi4zNTksMi4zNjEsMy42NTgsNS40OTcsMy42NTgsOC44MzF2MTIuNDg2SDE5MC43NjZ6IiBzdHlsZT0iZmlsbC1ydWxlOmV2ZW5vZGQ7Y2xpcC1ydWxlOmV2ZW5vZGQ7ZmlsbDojRTFFQkYwOyIvPiYjeGE7CQkJCTxwYXRoIGQ9Ik0yNjUuMjg2LDE2MC45MThIMjQ2LjI2Yy0zLjI4MywwLTUuOTQ1LDIuNjYyLTUuOTQ1LDUuOTQ2JiMxMDsmIzk7JiM5OyYjOTsmIzk7JiM5O3YzNi44NjR2MjQuNTc2YzAsMy4yODQsMi42NjIsNS45NDYsNS45NDUsNS45NDZjMy4yODQsMCw1Ljk0Ni0yLjY2Miw1Ljk0Ni01Ljk0NnYtMTguNjNoMTMuMDgxJiMxMDsmIzk7JiM5OyYjOTsmIzk7JiM5O2MxMy4xMTQsMCwyMy43ODMtMTAuNjY5LDIzLjc4My0yMy43ODN2LTEuMTg5QzI4OS4wNywxNzEuNTg3LDI3OC40MDEsMTYwLjkxOCwyNjUuMjg2LDE2MC45MThMMjY1LjI4NiwxNjAuOTE4eiYjMTA7JiM5OyYjOTsmIzk7JiM5OyYjOTsgTTI3Ny4xNzgsMTg1Ljg5YzAsNi41NTctNS4zMzUsMTEuODkyLTExLjg5MiwxMS44OTJsLTEzLjA4MSwwVjE3Mi44MWgxMy4wODFjNi41NTcsMCwxMS44OTIsNS4zMzUsMTEuODkyLDExLjg5MlYxODUuODl6IiBzdHlsZT0iZmlsbC1ydWxlOmV2ZW5vZGQ7Y2xpcC1ydWxlOmV2ZW5vZGQ7ZmlsbDojRTFFQkYwOyIvPiYjeGE7CQkJCTxwYXRoIGQ9Ik0zMDcuNywxNjAuOTE4Yy0zLjI4NCwwLTUuOTQ2LDIuNjYyLTUuOTQ2LDUuOTQ2djYxLjQ0JiMxMDsmIzk7JiM5OyYjOTsmIzk7JiM5O2MwLDMuMjg0LDIuNjYyLDUuOTQ2LDUuOTQ2LDUuOTQ2YzMuMjg0LDAsNS45NDYtMi42NjIsNS45NDYtNS45NDZ2LTYxLjQ0QzMxMy42NDYsMTYzLjU4LDMxMC45ODQsMTYwLjkxOCwzMDcuNywxNjAuOTE4eiIgc3R5bGU9ImZpbGwtcnVsZTpldmVub2RkO2NsaXAtcnVsZTpldmVub2RkO2ZpbGw6I0UxRUJGMDsiLz4mI3hhOwkJCTwvZz4mI3hhOwkJPC9nPiYjeGE7CTwvZz4mI3hhOzwvZz4mI3hhOzwvc3ZnPg==;" vertex="1" parent="1">
          <mxGeometry x="504" y="1656" width="70" height="70" as="geometry" />
        </mxCell>
        <mxCell id="dyGQCXBNsjJ9LCaC6bJl-45" value="" style="image;aspect=fixed;perimeter=ellipsePerimeter;html=1;align=center;shadow=0;dashed=0;spacingTop=3;image=img/lib/active_directory/database.svg;" vertex="1" parent="1">
          <mxGeometry x="511.96999999999997" y="1731" width="54.05" height="40" as="geometry" />
        </mxCell>
        <mxCell id="dyGQCXBNsjJ9LCaC6bJl-53" style="edgeStyle=orthogonalEdgeStyle;rounded=0;orthogonalLoop=1;jettySize=auto;html=1;" edge="1" parent="1" source="dyGQCXBNsjJ9LCaC6bJl-47" target="dyGQCXBNsjJ9LCaC6bJl-25">
          <mxGeometry relative="1" as="geometry" />
        </mxCell>
        <mxCell id="dyGQCXBNsjJ9LCaC6bJl-47" value="" style="shape=image;verticalLabelPosition=bottom;labelBackgroundColor=default;verticalAlign=top;aspect=fixed;imageAspect=0;image=data:image/svg+xml,PHN2ZyB4bWxuczp4bGluaz0iaHR0cDovL3d3dy53My5vcmcvMTk5OS94bGluayIgeG1sbnM9Imh0dHA6Ly93d3cudzMub3JnLzIwMDAvc3ZnIiB4bWw6c3BhY2U9InByZXNlcnZlIiBzdHlsZT0iZW5hYmxlLWJhY2tncm91bmQ6bmV3IDAgMCAyNTYgMjU2OyIgdmlld0JveD0iMCAwIDI1NiAyNTYiIHk9IjBweCIgeD0iMHB4IiB2ZXJzaW9uPSIxLjEiPiYjeGE7PHN0eWxlIHR5cGU9InRleHQvY3NzIj4mI3hhOwkuc3Qwe2ZpbGw6I0VGRUZFRjt9JiN4YTsJLnN0MXtmaWxsOiNBRkFGQUY7fSYjeGE7CS5zdDJ7ZmlsbDojNzJDMkU5O30mI3hhOwkuc3Qze2ZpbGw6I0ZDNUQzRDt9JiN4YTsJLnN0NHtmaWxsOiNGMEMwMjA7fSYjeGE7CS5zdDV7ZmlsbDojRkZGRkZGO30mI3hhOwkuc3Q2e2ZpbGw6I0IyNTAzNTt9JiN4YTsJLnN0N3tmaWxsOiNGRkI3OUY7fSYjeGE7CS5zdDh7ZmlsbDojRkFFMEUxO30mI3hhOwkuc3Q5e2ZpbGw6IzRCQTVDODt9JiN4YTsJLnN0MTB7ZmlsbDojRThBNjFFO30mI3hhOwkuc3QxMXtmaWxsOiNGOEU1QjA7fSYjeGE7CS5zdDEye2ZpbGw6I0VBOEY3Qzt9JiN4YTsJLnN0MTN7ZmlsbDojRkZDQkMzO30mI3hhOwkuc3QxNHtmaWxsOiMxM0JGNkQ7fSYjeGE7CS5zdDE1e2ZpbGw6Izc2RkZCQjt9JiN4YTsJLnN0MTZ7ZmlsbDojODc4Nzg3O30mI3hhOwkuc3QxN3tmaWxsOiNDNUU1RkU7fSYjeGE7CS5zdDE4e2ZpbGw6I0YwQzhBMDt9JiN4YTs8L3N0eWxlPiYjeGE7PGcgaWQ9IkNhcHRpb25zIj4mI3hhOzwvZz4mI3hhOzxnIGlkPSJJY29ucyI+JiN4YTsJPGc+JiN4YTsJCTxwYXRoIGQ9Ik0xNTcuODg4LDE1My44Mzd2ODAuMzFINi41Mjh2LTgwLjMxYzAtMTYuODQsMTMuNjQtMzAuNDgsMzAuNDctMzAuNDhoOTAuNDJjOC42OCwwLDE2LjUxLDMuNjMsMjIuMDUsOS40NSYjMTA7JiM5OyYjOTsmIzk7QzE1NC42ODgsMTM4LjI2NywxNTcuODg4LDE0NS42NzcsMTU3Ljg4OCwxNTMuODM3eiIgY2xhc3M9InN0MiIvPiYjeGE7CQk8cGF0aCBkPSJNMTU3Ljg4OCwxNTMuODM3djgwLjMxaC01OS4yM2MtMS4yNy0yLjEzLTItNC42Mi0yLTcuMjd2LTQuOTFjMC00Ljg3LDMuNjQtOC44OSw4LjM0LTkuNTJ2LTY3LjImIzEwOyYjOTsmIzk7JiM5O2MwLTYuODYsNS41OC0xMi40NCwxMi40NC0xMi40NGgzMi4wM0MxNTQuNjg4LDEzOC4yNjcsMTU3Ljg4OCwxNDUuNjc3LDE1Ny44ODgsMTUzLjgzN3oiIGNsYXNzPSJzdDkiLz4mI3hhOwkJPHJlY3QgaGVpZ2h0PSI1OC4yMTkiIHdpZHRoPSIyNS4yMjgiIGNsYXNzPSJzdDciIHk9IjE3NS45MjgiIHg9IjYuNTI0Ii8+JiN4YTsJCTxwYXRoIGQ9Ik0zMS43NDgsMTYxLjcwN3YxNC4yMjFoLTd2LTcuMjIxQzI0Ljc0OCwxNjQuODQxLDI3Ljg4MiwxNjEuNzA3LDMxLjc0OCwxNjEuNzA3TDMxLjc0OCwxNjEuNzA3eiIgY2xhc3M9InN0OSIvPiYjeGE7CQk8cGF0aCBkPSJNODIuMjA5LDE0OS4wOTFMODIuMjA5LDE0OS4wOTFjLTExLjE3OSwwLTIwLjI0Mi05LjA2My0yMC4yNDItMjAuMjQyVjk2LjUyNGg0MC40ODN2MzIuMzI2JiMxMDsmIzk7JiM5OyYjOTtDMTAyLjQ1MSwxNDAuMDI5LDkzLjM4OCwxNDkuMDkxLDgyLjIwOSwxNDkuMDkxeiIgY2xhc3M9InN0NyIvPiYjeGE7CQk8cGF0aCBkPSJNMTAyLjQ0OSw5Ni41Mjd2MzIuMzJjMCwxMS4xODktOS4wODIsMjAuMjQtMjAuMjQsMjAuMjRjLTExLjE0MiwwLTIwLjI0LTkuMDM2LTIwLjI0LTIwLjI0di0zMi4zMkgxMDIuNDQ5eiIgY2xhc3M9InN0NyIvPiYjeGE7CQk8cGF0aCBkPSJNMTAyLjQ0OSw5Ni41Mjd2MjguNzNjLTYuMDMsMy4yNi0xMi45Myw1LjEtMjAuMjQsNS4xcy0xNC4yMS0xLjg0LTIwLjI0LTUuMXYtMjguNzNIMTAyLjQ0OXoiIGNsYXNzPSJzdDEyIi8+JiN4YTsJCTxwYXRoIGQ9Ik00NS4wNTYsNTYuNTM5aDEuMzQzVjgyLjk0aC0xLjM0M2MtNy4yOSwwLTEzLjE5NS01LjkwNS0xMy4xOTUtMTMuMTk1JiMxMDsmIzk7JiM5OyYjOTtDMzEuODYxLDYyLjQ4OSwzNy43MjgsNTYuNTM5LDQ1LjA1Niw1Ni41Mzl6IiBjbGFzcz0ic3Q3Ii8+JiN4YTsJCTxwYXRoIGQ9Ik0xMzIuNTU3LDY5Ljc0NWMwLDcuMjg3LTUuODk1LDEzLjE5NS0xMy4xOTUsMTMuMTk1aC0xLjM0M1Y1Ni41MzloMS4zNDMmIzEwOyYjOTsmIzk7JiM5O0MxMjYuNjUyLDU2LjUzOSwxMzIuNTU3LDYyLjQ1NSwxMzIuNTU3LDY5Ljc0NXoiIGNsYXNzPSJzdDciLz4mI3hhOwkJPHBhdGggZD0iTTU5LjU4NCwyMi4yMTNMNTkuNTg0LDIyLjIxM2MtNy4yODIsMC0xMy4xODUsNS45MDMtMTMuMTg1LDEzLjE4NXYxNS42NTVoMjYuMzdWMzUuMzk4JiMxMDsmIzk7JiM5OyYjOTtDNzIuNzY5LDI4LjExNiw2Ni44NjYsMjIuMjEzLDU5LjU4NCwyMi4yMTN6IiBjbGFzcz0ic3QxNiIvPiYjeGE7CQk8cGF0aCBkPSJNODUuOTUzLDIyLjIxM2gxOC44ODFjNy4yODIsMCwxMy4xODUsNS45MDMsMTMuMTg1LDEzLjE4NXYxNS42NTVoLTQ1LjI1VjM1LjM5OCYjMTA7JiM5OyYjOTsmIzk7QzcyLjc2OSwyOC4xMTYsNzguNjcyLDIyLjIxMyw4NS45NTMsMjIuMjEzeiIgY2xhc3M9InN0MTYiLz4mI3hhOwkJPHBhdGggZD0iTTgyLjIwOSwxMjMuMzU1TDgyLjIwOSwxMjMuMzU1Yy0xOS43NzcsMC0zNS44MS0xNi4wMzMtMzUuODEtMzUuODFWNTEuMDUzaDcxLjYydjM2LjQ5MiYjMTA7JiM5OyYjOTsmIzk7QzExOC4wMTksMTA3LjMyMiwxMDEuOTg2LDEyMy4zNTUsODIuMjA5LDEyMy4zNTV6IiBjbGFzcz0ic3Q3Ii8+JiN4YTsJCTxyZWN0IGhlaWdodD0iNTguMzM0IiB3aWR0aD0iNyIgY2xhc3M9InN0MTIiIHk9IjE3NS44MTciIHg9IjI0Ljc0OCIvPiYjeGE7CQk8cGF0aCBkPSJNMTkzLjUyNiwyMS44ODJjLTI2LjE2LDAuODIzLTQ3LjM4MiwyMi4yNzktNDcuOTM5LDQ4LjQ0NmMtMC4yNDEsMTEuMzQ2LDMuMzQxLDIxLjg0Miw5LjUzNSwzMC4zMDUmIzEwOyYjOTsmIzk7JiM5O2wtNC4xNDQsMTEuNDIxYy0wLjc5LDIuMTc4LDEuMzIsNC4yODksMy40OTgsMy40OThsMTEuNDIxLTQuMTQ0YzguNDYzLDYuMTk0LDE4Ljk1OCw5Ljc3NiwzMC4zMDQsOS41MzUmIzEwOyYjOTsmIzk7JiM5O2MyNi4xNjYtMC41NTYsNDcuNjIzLTIxLjc3OCw0OC40NDctNDcuOTM3QzI0NS41NDksNDQuMzc2LDIyMi4xNTUsMjAuOTgxLDE5My41MjYsMjEuODgyeiIgY2xhc3M9InN0NCIvPiYjeGE7CQk8cGF0aCBkPSJNMjQxLjY4MSwxNDUuMjQ3djc0LjA5OUgxMTEuOTk2di03NC4wOTljMC0zLjAwMywyLjQzMi01LjQ0LDUuNDQtNS40NGgxMTguODA1JiMxMDsmIzk7JiM5OyYjOTtDMjM5LjI0OSwxMzkuODA3LDI0MS42ODEsMTQyLjI0NCwyNDEuNjgxLDE0NS4yNDd6IiBjbGFzcz0ic3QxIi8+JiN4YTsJCTxyZWN0IGhlaWdodD0iNTcuNTM5IiB3aWR0aD0iMTA3LjY4NSIgY2xhc3M9InN0MCIgeT0iMTUwLjgwNyIgeD0iMTIyLjk5NiIvPiYjeGE7CQk8cGF0aCBkPSJNMTY5LjQ3MSwxOTAuNTI3bC03LjE2Ny03LjE2N2MtMi4zNDMtMi4zNDMtMi4zNDMtNi4xNDIsMC04LjQ4NWMyLjM0My0yLjM0Myw2LjE0My0yLjM0Myw4LjQ4NSwwJiMxMDsmIzk7JiM5OyYjOTtsMi45MjQsMi45MjRsOS4xNzQtOS4xNzNjMi4zNDMtMi4zNDMsNi4xNDItMi4zNDIsOC40ODUsMGMyLjM0MywyLjM0MywyLjM0Myw2LjE0MiwwLDguNDg1bC0xMy40MTcsMTMuNDE2JiMxMDsmIzk7JiM5OyYjOTtDMTc1LjYxNCwxOTIuODY5LDE3MS44MTQsMTkyLjg3MSwxNjkuNDcxLDE5MC41Mjd6IiBjbGFzcz0ic3QxNCIvPiYjeGE7CQk8cGF0aCBkPSJNMjQyLjE5OSwyMzQuMTQ4SDExMC45MzRjLTQuMDE3LDAtNy4yNzMtMy4yNTYtNy4yNzMtNy4yNzN2LTQuOTA3YzAtMS40NDgsMS4xNzQtMi42MjIsMi42MjItMi42MjJIMjQ2Ljg1JiMxMDsmIzk7JiM5OyYjOTtjMS40NDgsMCwyLjYyMiwxLjE3NCwyLjYyMiwyLjYyMnY0LjkwN0MyNDkuNDcyLDIzMC44OTIsMjQ2LjIxNiwyMzQuMTQ4LDI0Mi4xOTksMjM0LjE0OHoiIGNsYXNzPSJzdDEiLz4mI3hhOwkJPHBhdGggZD0iTTMxLjY5NSw5Ni43OTFjLTMuNzMtMS4yMy02LjY0LTIuMDItOC41OS0xMC40MmMtMC42My0yLjc0LTQuNTUtMi43My01LjE4LDBjLTEuOTEsOC4yMS00LjU3LDkuMDktOC41OSwxMC40MiYjMTA7JiM5OyYjOTsmIzk7Yy0yLjQyLDAuOC0yLjQzLDQuMjUsMCw1LjA1YzYuNjksMi4yMSw3LjQ0LDUuNDgsOC41OSwxMC40MmMwLjY0LDIuNzQsNC41NCwyLjc0LDUuMTgsMGMxLjktOC4yMSw0LjcxLTkuMTQsOC41OS0xMC40MiYjMTA7JiM5OyYjOTsmIzk7QzM0LjEyNSwxMDEuMDQxLDM0LjEyNSw5Ny41OTEsMzEuNjk1LDk2Ljc5MXoiLz4mI3hhOwkJPHBhdGggZD0iTTI0LjUwNSw5OS4zNDFjLTEuNDcsMS4wMy0yLjc5LDIuNDItMy45Myw0LjQ0Yy0wLjk0LTEuNTktMi4yNS0zLjA5LTQuMTYtNC40MWMxLjU0LTEuMDYsMi45My0yLjUsNC4xMi00LjYzJiMxMDsmIzk7JiM5OyYjOTtDMjEuNzM1LDk2LjkwMSwyMy4wOTUsOTguMzMxLDI0LjUwNSw5OS4zNDF6IiBjbGFzcz0ic3Q0Ii8+JiN4YTsJCTxwYXRoIGQ9Ik0xNi41MjgsMTY1Ljc3OWMtMS4zODEsMC0yLjUtMS4xMTktMi41LTIuNXYtM2MwLTEuMzgxLDEuMTE5LTIuNSwyLjUtMi41czIuNSwxLjExOSwyLjUsMi41djMmIzEwOyYjOTsmIzk7JiM5O0MxOS4wMjgsMTY0LjY2LDE3LjkwOSwxNjUuNzc5LDE2LjUyOCwxNjUuNzc5eiBNMTYuODM3LDE1Mi43OThjLTAuMTQzLDAtMC4yODgtMC4wMTItMC40MzQtMC4wMzcmIzEwOyYjOTsmIzk7JiM5O2MtMS4zNi0wLjIzOC0yLjI3LTEuNTMzLTIuMDMyLTIuODk0YzEuOTI3LTExLjAxNSwxMS40NDItMTkuMDEsMjIuNjI3LTE5LjAxMWMxLjM4MSwwLDIuNSwxLjExOSwyLjUsMi41cy0xLjExOSwyLjUtMi41LDIuNSYjMTA7JiM5OyYjOTsmIzk7Yy04Ljc1LDAuMDAxLTE2LjE5NCw2LjI1Ni0xNy43MDEsMTQuODcyQzE5LjA4NCwxNTEuOTQzLDE4LjAyOCwxNTIuNzk4LDE2LjgzNywxNTIuNzk4eiIgY2xhc3M9InN0MTciLz4mI3hhOwkJPHBhdGggZD0iTTE5NS45ODcsMTEzLjQ0NGMtMS4zNTYsMC0yLjQ3LTEuMDg1LTIuNDk4LTIuNDQ3Yy0wLjAyOS0xLjM4LDEuMDY1LTIuNTIyLDIuNDQ2LTIuNTUyJiMxMDsmIzk7JiM5OyYjOTtjMTUuMjExLTAuMzIzLDI4LjUwNC05LjcyMSwzMy44NjUtMjMuOTRjMC40ODctMS4yOTQsMS45MzYtMS45NDUsMy4yMjEtMS40NTdjMS4yOTIsMC40ODYsMS45NDQsMS45MjksMS40NTcsMy4yMjEmIzEwOyYjOTsmIzk7JiM5O2MtNi4wODUsMTYuMTQyLTIxLjE3MywyNi44MDktMzguNDM4LDI3LjE3NUMxOTYuMDIzLDExMy40NDQsMTk2LjAwNSwxMTMuNDQ0LDE5NS45ODcsMTEzLjQ0NHogTTIzNC40NDgsNzguMTgyJiMxMDsmIzk7JiM5OyYjOTtjLTAuMDg5LDAtMC4xNzktMC4wMDUtMC4yNjktMC4wMTRjLTEuMzczLTAuMTQ3LTIuMzY3LTEuMzc5LTIuMjIxLTIuNzUyYzAuMS0wLjkyNiwwLjE2NS0xLjg2OSwwLjE5NC0yLjgwNiYjMTA7JiM5OyYjOTsmIzk7YzAuMDQ0LTEuMzUzLDEuMTU0LTIuNDIsMi40OTgtMi40MmMwLjAyNiwwLDAuMDU0LDAsMC4wODEsMC4wMDFjMS4zOCwwLjA0NSwyLjQ2MywxLjE5OSwyLjQxOSwyLjU3OSYjMTA7JiM5OyYjOTsmIzk7Yy0wLjAzNCwxLjA2LTAuMTA4LDIuMTI4LTAuMjIsMy4xNzdDMjM2Ljc5NCw3Ny4yMywyMzUuNzEsNzguMTgyLDIzNC40NDgsNzguMTgyeiIgY2xhc3M9InN0MTEiLz4mI3hhOwkJPHBhdGggZD0iTTE1NS41ODYsNzMuMDQxYy0wLjAxOCwwLTAuMDM2LDAtMC4wNTUtMC4wMDFjLTEuMzgtMC4wMjktMi40NzYtMS4xNzItMi40NDUtMi41NTMmIzEwOyYjOTsmIzk7JiM5O2MwLjAyMi0xLjA2NSwwLjA4NS0yLjEzNiwwLjE4Ny0zLjE4MmMwLjEzMy0xLjM3NSwxLjM1NS0yLjM3OCwyLjcyOS0yLjI0N2MxLjM3NCwwLjEzMywyLjM4LDEuMzU0LDIuMjQ3LDIuNzI5JiMxMDsmIzk7JiM5OyYjOTtjLTAuMDg5LDAuOTIxLTAuMTQ1LDEuODY1LTAuMTY1LDIuODA3QzE1OC4wNTYsNzEuOTU2LDE1Ni45NDEsNzMuMDQxLDE1NS41ODYsNzMuMDQxeiBNMTU3LjEwNiw2MC4xNjkmIzEwOyYjOTsmIzk7JiM5O2MtMS4yOTctMC40NzQtMS45NjUtMS45MDgtMS40OTEtMy4yMDZjNS45MTctMTYuMjEzLDIwLjg5LTI3LjA0MSwzOC4xNDYtMjcuNTg1YzEuNDA0LTAuMDQyLDIuNTM0LDEuMDQxLDIuNTc4LDIuNDImIzEwOyYjOTsmIzk7JiM5O2MwLjA0MywxLjM4MS0xLjA0LDIuNTM0LTIuNDIsMi41NzhjLTE1LjIwNCwwLjQ3OS0yOC4zOTYsMTAuMDE4LTMzLjYwNywyNC4zMDJDMTU5LjgzNyw1OS45NzgsMTU4LjM5OSw2MC42NDEsMTU3LjEwNiw2MC4xNjl6IiBjbGFzcz0ic3QxMSIvPiYjeGE7CQk8cGF0aCBkPSJNMTMyLjk5NiwyMDAuODQ1Yy0xLjM4MSwwLTIuNS0xLjExOS0yLjUtMi41di0zYzAtMS4zODEsMS4xMTktMi41LDIuNS0yLjVzMi41LDEuMTE5LDIuNSwyLjV2MyYjMTA7JiM5OyYjOTsmIzk7QzEzNS40OTYsMTk5LjcyNiwxMzQuMzc3LDIwMC44NDUsMTMyLjk5NiwyMDAuODQ1eiBNMTMyLjk5NiwxODcuODQ1Yy0xLjM4MSwwLTIuNS0xLjExOS0yLjUtMi41di0yNC41MzkmIzEwOyYjOTsmIzk7JiM5O2MwLTEuMzgxLDEuMTE5LTIuNSwyLjUtMi41czIuNSwxLjExOSwyLjUsMi41djI0LjUzOUMxMzUuNDk2LDE4Ni43MjYsMTM0LjM3NywxODcuODQ1LDEzMi45OTYsMTg3Ljg0NXoiIGNsYXNzPSJzdDUiLz4mI3hhOwkJPHBhdGggZD0iTTgyLjIwOSw4NS41MTJjMS4zODEsMCwyLjUtMS4xMTksMi41LTIuNVY3MS40MDVjMC0xLjM4MS0xLjExOS0yLjUtMi41LTIuNXMtMi41LDEuMTE5LTIuNSwyLjV2MTEuNjA3JiMxMDsmIzk7JiM5OyYjOTtDNzkuNzA5LDg0LjM5Myw4MC44MjgsODUuNTEyLDgyLjIwOSw4NS41MTJ6Ii8+JiN4YTsJCTxwYXRoIGQ9Ik05Ny44OTQsOTEuNjhjMC0xLjM4MS0xLjExOS0yLjUtMi41LTIuNXMtMi41LDEuMTE5LTIuNSwyLjVjMCw1Ljg5Mi00Ljc5MywxMC42ODUtMTAuNjg1LDEwLjY4NSYjMTA7JiM5OyYjOTsmIzk7UzcxLjUyNCw5Ny41NzIsNzEuNTI0LDkxLjY4YzAtMS4zODEtMS4xMTktMi41LTIuNS0yLjVzLTIuNSwxLjExOS0yLjUsMi41YzAsOC42NDgsNy4wMzYsMTUuNjg1LDE1LjY4NSwxNS42ODUmIzEwOyYjOTsmIzk7JiM5O0M5MC44NTcsMTA3LjM2NSw5Ny44OTQsMTAwLjMyOSw5Ny44OTQsOTEuNjh6Ii8+JiN4YTsJCTxwYXRoIGQ9Ik0xMDQuOTU4LDI0LjcxM2MxLjM1OSwwLDIuNDc5LTEuMTEsMi40OS0yLjQ4YzAuMDItMS4zODItMS4wODUtMi40OTktMi40NzEtMi41MmgtMC4wMjljLTEuMzYsMC0yLjQ4LDEuMTA5LTIuNSwyLjQ3OSYjMTA7JiM5OyYjOTsmIzk7YzAsMS4zNDksMS4wNiwyLjUsMi40NzksMi41MjFIMTA0Ljk1OHoiLz4mI3hhOwkJPHBhdGggZD0iTTY3Ljc1MSw2OS4yNDl2LTIuNjM0YzAtMS4zODEtMS4xMTktMi41LTIuNS0yLjVzLTIuNSwxLjExOS0yLjUsMi41djIuNjM0YzAsMS4zODEsMS4xMTksMi41LDIuNSwyLjUmIzEwOyYjOTsmIzk7JiM5O1M2Ny43NTEsNzAuNjMsNjcuNzUxLDY5LjI0OXoiLz4mI3hhOwkJPHBhdGggZD0iTTk5LjE2Nyw3MS43NDljMS4zODEsMCwyLjUtMS4xMTksMi41LTIuNXYtMi42MzRjMC0xLjM4MS0xLjExOS0yLjUtMi41LTIuNXMtMi41LDEuMTE5LTIuNSwyLjV2Mi42MzQmIzEwOyYjOTsmIzk7JiM5O0M5Ni42NjcsNzAuNjMsOTcuNzg2LDcxLjc0OSw5OS4xNjcsNzEuNzQ5eiIvPiYjeGE7CQk8cGF0aCBkPSJNMTQzLjA4OCw3MC4yNzRjLTAuMjM3LDExLjA4OCwyLjk1MiwyMS42ODcsOS4yMzUsMzAuNzRsLTMuNjk1LDEwLjE4NmMtMS41MTksNC4xNzksMi41NCw4LjIxNyw2LjcsNi43MDFsMTAuMTg2LTMuNjk2JiMxMDsmIzk7JiM5OyYjOTtjOS4zNDMsNi40ODMsMjAuMDY5LDkuNDgzLDMwLjczOSw5LjIzNmMyOC4xNDEtMC41OTgsNTAuOTE1LTIzLjUxNSw1MC45MTUtNTIuMDM4YzAtMTAuMDUtMi44Ny0xOS44MS04LjMxMS0yOC4yMiYjMTA7JiM5OyYjOTsmIzk7Yy0wLjcyLTEuMTItMi4zMjktMS40Ny0zLjQ0OS0wLjc0Yy0xLjE1NiwwLjc0My0xLjUsMi4yNzUtMC43NSwzLjQ2YzQuOTIsNy41OTEsNy41MSwxNi40MSw3LjUxLDI1LjUmIzEwOyYjOTsmIzk7JiM5O2MwLDI1Ljc0NS0yMC41NDIsNDYuNDk4LTQ2LjAyMSw0Ny4wNGMtMTAuNDQ0LDAuMTk2LTIwLjM4MS0yLjkxLTI4Ljc3NS05LjA1NGMtMC42NzQtMC40OTItMS41NDYtMC42MTUtMi4zMjktMC4zMzJsLTExLjQyLDQuMTQ0JiMxMDsmIzk7JiM5OyYjOTtjLTAuMTg2LDAuMDcyLTAuMzY1LTAuMTA5LTAuMjk1LTAuMjk1bDQuMTQ0LTExLjQyMWMwLjI4NC0wLjc4MywwLjE1OS0xLjY1Ni0wLjMzMy0yLjMyOWMtNi4xNDUtOC4zOTUtOS4yNzUtMTguMzQ1LTkuMDUzLTI4Ljc3NSYjMTA7JiM5OyYjOTsmIzk7YzAuNTMyLTI1LjAwMywyMC41MTktNDUuMjA2LDQ1LjUwNS00NS45OTljMC4wMDksMCwwLjAxOCwwLjAwMiwwLjAyNywwLjAwMmM5LjE4NS0wLjM5MywxOS4yNTcsMi4yMTYsMjcuODUsOC4wMyYjMTA7JiM5OyYjOTsmIzk7YzEuMTM2LDAuNzczLDIuNzA2LDAuNDc1LDMuNDctMC42N2MwLjc3MS0xLjE0MSwwLjQ3MS0yLjY5LTAuNjctMy40NzFjLTkuNDcyLTYuNDE0LTIwLjQzNy05LjI3My0zMC44MTMtOC44OSYjMTA7JiM5OyYjOTsmIzk7Yy0wLjAwMywwLTAuMDA1LDAtMC4wMDgsMGMtMC4wMDYsMC0wLjAxMSwwLjAwMS0wLjAxNywwLjAwMWMtMC4wMDEsMC0wLjAwMSwwLTAuMDAyLDBjMCwwLDAsMC0wLjAwMSwwJiMxMDsmIzk7JiM5OyYjOTtDMTY1Ljc4NywyMC4yNjQsMTQzLjY3Niw0Mi42MTMsMTQzLjA4OCw3MC4yNzR6Ii8+JiN4YTsJCTxwYXRoIGQ9Ik0yMzIuMjc4LDM4LjUzNGMwLjk4OS0wLjk3MSwxLTIuNTUxLDAuMDM5LTMuNTRjLTAuOTM5LTAuOTYtMi41NzktMC45NzEtMy41MzktMC4wNGMtMC45NjYsMC45NjQtMS4wMjEsMi41MTUtMC4wNCwzLjU0JiMxMDsmIzk7JiM5OyYjOTtDMjI5Ljc0OSwzOS41MDUsMjMxLjMxOSwzOS40NzEsMjMyLjI3OCwzOC41MzR6Ii8+JiN4YTsJCTxwYXRoIGQ9Ik0yMjYuMDA5LDYwLjc0OWwtMi4zNDMsMy40ODFjLTQuMDgtMTQuNTY0LTE4Ljc3OC0yMy44Mi0zMy44Ny0yMC44NjdjLTkuMjI5LDEuODA0LTE3LjA5Myw3Ljk4Ni0yMS4wMzMsMTYuNTM5JiMxMDsmIzk7JiM5OyYjOTtjLTAuNTc4LDEuMjU0LTAuMDI5LDIuNzM4LDEuMjI1LDMuMzE2YzEuMjU2LDAuNTc5LDIuNzM4LDAuMDI4LDMuMzE2LTEuMjI1YzMuMjcxLTcuMDk3LDkuNzk0LTEyLjIyOCwxNy40NTEtMTMuNzI1JiMxMDsmIzk7JiM5OyYjOTtjMTIuMzA5LTIuNDAyLDI0LjI5Nyw0Ljk2NiwyNy45MiwxNi42ODZsLTMuMTkyLTIuMTQ4Yy0xLjE0My0wLjc3MS0yLjY5OS0wLjQ2OC0zLjQ3LDAuNjc5Yy0wLjc3MSwxLjE0Ni0wLjQ2NywyLjY5OSwwLjY3OSwzLjQ3JiMxMDsmIzk7JiM5OyYjOTtsOC4zNjYsNS42M2MwLjQyOCwwLjI4OCwwLjkxMywwLjQyNiwxLjM5NCwwLjQyNmMwLjgwNCwwLDEuNTk0LTAuMzg3LDIuMDc2LTEuMTA0bDUuNjMtOC4zNjZjMC43NzEtMS4xNDYsMC40NjctMi42OTktMC42NzktMy40NyYjMTA7JiM5OyYjOTsmIzk7QzIyOC4zMzUsNTkuMjk5LDIyNi43OCw1OS42MDIsMjI2LjAwOSw2MC43NDl6Ii8+JiN4YTsJCTxwYXRoIGQ9Ik0xNzguNzc5LDgxLjE0NWMwLjc3MS0xLjE0NiwwLjQ2Ny0yLjY5OS0wLjY3OS0zLjQ3bC04LjM2Ni01LjYzYy0xLjE0NC0wLjc3LTIuNjk3LTAuNDY5LTMuNDcsMC42NzlsLTUuNjMxLDguMzY2JiMxMDsmIzk7JiM5OyYjOTtjLTAuNzcxLDEuMTQ2LTAuNDY3LDIuNjk4LDAuNjc5LDMuNDdjMC40MjgsMC4yODgsMC45MTMsMC40MjYsMS4zOTQsMC40MjZjMC44MDQsMCwxLjU5NC0wLjM4NywyLjA3Ni0xLjEwNGwyLjMzOS0zLjQ3NiYjMTA7JiM5OyYjOTsmIzk7YzQuMDgyLDE0LjU3MSwxOC43ODYsMjMuODE0LDMzLjg3NCwyMC44NjJjOS43MjgtMS45MDEsMTcuNzc4LTguNTE5LDIxLjUzOC0xNy43MDJjMC41MjMtMS4yNzgtMC4wODktMi43MzgtMS4zNjYtMy4yNjEmIzEwOyYjOTsmIzk7JiM5O3MtMi43MzgsMC4wODktMy4yNjEsMS4zNjZjLTMuMTIsNy42MjEtOS44MDEsMTMuMTEyLTE3Ljg3LDE0LjY5Yy0xMi4zLDIuNDAzLTI0LjI5Ni00Ljk2My0yNy45MjEtMTYuNjg2bDMuMTkzLDIuMTQ5JiMxMDsmIzk7JiM5OyYjOTtDMTc2LjQ1Miw4Mi41OTMsMTc4LjAwOSw4Mi4yOTIsMTc4Ljc3OSw4MS4xNDV6Ii8+JiN4YTsJCTxwYXRoIGQ9Ik0xODEuMTE5LDE2Ni44NThsLTcuNDA2LDcuNDA1bC0xLjE1Ni0xLjE1NmMtMy4zMTQtMy4zMTQtOC43MDctMy4zMTQtMTIuMDIxLDBjLTMuMzEzLDMuMzE0LTMuMzEzLDguNzA3LDAuMDAxLDEyLjAyMSYjMTA7JiM5OyYjOTsmIzk7bDcuMTY3LDcuMTY3YzMuMzEzLDMuMzEzLDguNzA2LDMuMzE1LDEyLjAyMSwwbDEzLjQxNi0xMy40MTZjMy4zMjItMy4zMjIsMy4zMjMtOC42OTksMC0xMi4wMjEmIzEwOyYjOTsmIzk7JiM5O0MxODkuODI3LDE2My41NDYsMTg0LjQzNiwxNjMuNTQzLDE4MS4xMTksMTY2Ljg1OHogTTE4OS42MDQsMTc1LjM0M2wtMTMuNDE2LDEzLjQxNWMtMS4zNjUsMS4zNjUtMy41ODUsMS4zNjQtNC45NSwwLjAwMSYjMTA7JiM5OyYjOTsmIzk7bC03LjE2Ny03LjE2N2MtMS4zNjQtMS4zNjQtMS4zNjQtMy41ODUsMC00Ljk1YzEuMzY0LTEuMzY0LDMuNTg1LTEuMzY1LDQuOTUsMGwyLjkyNCwyLjkyNGMwLjk3NywwLjk3NywyLjU1OSwwLjk3NywzLjUzNSwwJiMxMDsmIzk7JiM5OyYjOTtsOS4xNzQtOS4xNzNjMS4zNjYtMS4zNjUsMy41ODYtMS4zNjMsNC45NSwwLjAwMUMxOTAuOTczLDE3MS43NiwxOTAuOTczLDE3My45NzUsMTg5LjYwNCwxNzUuMzQzeiIvPiYjeGE7CQk8cGF0aCBkPSJNMTIyLjk5OCwxNDguMzAzYy0xLjM3OCwwLTIuNTAyLDEuMTItMi41MDIsMi41MDN2NTcuNTM5YzAsMS4zODEsMS4xMTksMi41LDIuNSwyLjVoMTA3LjY4NWMxLjM4MSwwLDIuNS0xLjExOSwyLjUtMi41JiMxMDsmIzk7JiM5OyYjOTt2LTU3LjUzOWMwLTEuMzg1LTEuMTI3LTIuNTAzLTIuNTAzLTIuNTAzaC0xNy42OGMtMS4zOCwwLTIuNSwxLjEyLTIuNSwyLjVzMS4xMiwyLjUsMi41LDIuNWgxNS4xODN2NTIuNTQySDEyNS40OTZ2LTUyLjU0MiYjMTA7JiM5OyYjOTsmIzk7aDY3LjUwMmMxLjM4LDAsMi41LTEuMTIsMi41LTIuNXMtMS4xMi0yLjUtMi41LTIuNUgxMjIuOTk4eiIvPiYjeGE7CQk8Y2lyY2xlIHI9IjIuNSIgY3k9IjE1MC44MDMiIGN4PSIyMDIuOTk4Ii8+JiN4YTsJCTxwYXRoIGQ9Ik0xMDkuNDk2LDE0NS4yNDd2NzEuNjAxaC0zLjIxNGMtMi44MjQsMC01LjEyMSwyLjI5Ny01LjEyMSw1LjEyMXY0LjkwN2MwLDUuMzg5LDQuMzg0LDkuNzcyLDkuNzcyLDkuNzcyaDEzMS4yNjYmIzEwOyYjOTsmIzk7JiM5O2M1LjM4OSwwLDkuNzcyLTQuMzg0LDkuNzcyLTkuNzcydi00LjkwN2MwLTIuODI0LTIuMjk3LTUuMTIxLTUuMTIxLTUuMTIxaC0yLjY3di03MS42MDFjMC00LjM3OC0zLjU2Mi03LjkzOS03LjkzOS03LjkzOWgtODAuMzE0JiMxMDsmIzk7JiM5OyYjOTtjLTUuODg1LTEwLjE3OS0xNi42NjEtMTYuNDQ4LTI4LjUwOS0xNi40NDhoLTIyLjQ3di0yLjUwNWM5LjQzOC02Ljk4NCwxNS41Ny0xOC4xOTIsMTUuNTctMzAuODA4di0yLjE2NCYjMTA7JiM5OyYjOTsmIzk7YzguMTE0LTAuNTk2LDE0LjUzOC03LjM3MywxNC41MzgtMTUuNjM3YzAtOC4yNjktNi40MjQtMTUuMDUxLTE0LjUzOC0xNS42NDdjMC02LjYxNywwLTExLjYwMiwwLTE4LjY5OSYjMTA7JiM5OyYjOTsmIzk7YzAtMC4wMDktMC4wMDItMC4wMTYtMC4wMDMtMC4wMjVjLTAuMDA4LTQuMjI5LTEuNzU2LTguMzM2LTQuNzk4LTExLjI3Yy0wLjk2LTAuOTItMi42LTAuODktMy41MywwLjA3JiMxMDsmIzk7JiM5OyYjOTtjLTAuOTYsMC45OS0wLjkzLDIuNTcsMC4wNTEsMy41MmMwLjAxLDAuMDExLDAuMDEsMC4wMTEsMC4wMSwwLjAxMWMyLjEwOSwyLjA0LDMuMjcsNC43NywzLjI3LDcuNjk5JiMxMDsmIzk7JiM5OyYjOTtjMCwwLjAwMywwLjAwMSwwLjAwNiwwLjAwMSwwLjAxdjEzLjE0MUg3NS4yN2MwLjAxNi01Ljg3OCw0LjgwMS0xMC42NTUsMTAuNjgzLTEwLjY1NWg4LjUyNWMxLjM4MSwwLDIuNS0xLjExOSwyLjUtMi41JiMxMDsmIzk7JiM5OyYjOTtzLTEuMTE5LTIuNS0yLjUtMi41aC04LjUyNWMtNC4xMywwLTcuODgxLDEuNjE2LTEwLjY4NSw0LjIzNXYtMS43MzVjMC01Ljg5Miw0Ljc5My0xMC42ODUsMTAuNjg1LTEwLjY4NWg4Ljk5NSYjMTA7JiM5OyYjOTsmIzk7YzEuMzgsMCwyLjUtMS4xMiwyLjUtMi41cy0xLjEyLTIuNS0yLjUtMi41aC05Yy0wLjAwMiwwLTAuMDAzLDAtMC4wMDUsMGMtNS41MjcsMC4wMDMtMTAuMzgzLDIuODg3LTEzLjE3NSw3LjIyMSYjMTA7JiM5OyYjOTsmIzk7Yy0yLjc5My00LjMzNi03LjY1NC03LjIyMS0xMy4xODUtNy4yMjFjLTguNjQ4LDAtMTUuNjg1LDcuMDM2LTE1LjY4NSwxNS42ODVjMCw3LjAyNiwwLDExLjk3MSwwLDE4LjY5OSYjMTA7JiM5OyYjOTsmIzk7Yy04LjExNCwwLjU5Ny0xNC41MzgsNy4zNzgtMTQuNTM4LDE1LjY0N2MwLDguMjY0LDYuNDI0LDE1LjA0LDE0LjUzOCwxNS42Mzd2Mi4xNjRjMCwxMi42MTUsNi4xMzIsMjMuODIyLDE1LjU2OCwzMC44MDd2Mi41MDkmIzEwOyYjOTsmIzk7JiM5O2gtMjIuNDdjLTE4LjE4LDAtMzIuOTcsMTQuNzk1LTMyLjk3LDMyLjk4YzAsOS43MzcsMCw3MC43MDIsMCw4MC4zMWMwLDEuMzgxLDEuMTE5LDIuNSwyLjUsMi41czIuNS0xLjExOSwyLjUtMi41di01NS43MjNoMjAuMjImIzEwOyYjOTsmIzk7JiM5O3Y1NS43MThjMCwxLjM4MSwxLjExOSwyLjUsMi41LDIuNXMyLjUtMS4xMTksMi41LTIuNWMwLTkuMjM0LDAtNjMuOTE2LDAtNzIuNDM5YzAtMS4zODEtMS4xMTktMi41LTIuNS0yLjVzLTIuNSwxLjExOS0yLjUsMi41JiMxMDsmIzk7JiM5OyYjOTt2MTEuNzIySDkuMDI4di0xOS41ODdjMC0xNS40MjksMTIuNTQ3LTI3Ljk4LDI3Ljk3LTI3Ljk4aDIyLjQ3djIuOTg4YzAsMTIuNTM4LDEwLjIwMSwyMi43MzksMjIuNzQsMjIuNzM5JiMxMDsmIzk7JiM5OyYjOTtzMjIuNzQtMTAuMjAxLDIyLjc0LTIyLjczOXYtMi45OWgyMi40N2M5LjA0LDAsMTcuMzQ2LDQuMzAzLDIyLjU1OSwxMS40NDhoLTMyLjU0MiYjMTA7JiM5OyYjOTsmIzk7QzExMy4wNTgsMTM3LjMwNywxMDkuNDk2LDE0MC44NjksMTA5LjQ5NiwxNDUuMjQ3eiBNMTMwLjA1Nyw2OS43NDVjMCw1LjUwNi00LjE4MywxMC4wNTEtOS41MzgsMTAuNjNWNTkuMTA0JiMxMDsmIzk7JiM5OyYjOTtDMTI1Ljg3Myw1OS42ODQsMTMwLjA1Nyw2NC4yMzMsMTMwLjA1Nyw2OS43NDV6IE01OS41ODQsMjQuNzEzYzUuODkyLDAsMTAuNjg1LDQuNzkzLDEwLjY4NSwxMC42ODV2MS43MzUmIzEwOyYjOTsmIzk7JiM5O2MtMi44MDQtMi42MTgtNi41NTUtNC4yMzUtMTAuNjg1LTQuMjM1aC00LjA2OWMtMS4zODEsMC0yLjUsMS4xMTktMi41LDIuNXMxLjExOSwyLjUsMi41LDIuNWg0LjA2OSYjMTA7JiM5OyYjOTsmIzk7YzUuODgyLDAsMTAuNjY3LDQuNzc3LDEwLjY4MywxMC42NTVINDguODk5VjM1LjM5OEM0OC44OTksMjkuNTA2LDUzLjY5MiwyNC43MTMsNTkuNTg0LDI0LjcxM3ogTTM0LjM2MSw2OS43NDUmIzEwOyYjOTsmIzk7JiM5O2MwLTUuNTEyLDQuMTgzLTEwLjA2MSw5LjUzOC0xMC42NDF2MjEuMjcxQzM4LjU0NSw3OS43OTYsMzQuMzYxLDc1LjI1MSwzNC4zNjEsNjkuNzQ1eiBNNDguODk5LDg3LjU0NlY1My41NTNoNjYuNjE5djMzLjk5MiYjMTA7JiM5OyYjOTsmIzk7YzAsMTguMzY3LTE0Ljk0MiwzMy4zMS0zMy4zMSwzMy4zMVM0OC44OTksMTA1LjkxMyw0OC44OTksODcuNTQ2eiBNOTkuOTQ4LDEyOC44NDljMCw5Ljc4MS03Ljk1OCwxNy43MzktMTcuNzQsMTcuNzM5JiMxMDsmIzk7JiM5OyYjOTtzLTE3Ljc0LTcuOTU4LTE3Ljc0LTE3LjczOXYtNy4zNjZjMTAuOTEyLDUuNzI4LDI0LjE3Nyw1LjkzMywzNS40OCwwLjAwMVYxMjguODQ5eiBNMjQ2Ljk3MiwyMjEuOTY4djQuOTA3JiMxMDsmIzk7JiM5OyYjOTtjMCwyLjYzMi0yLjE0MSw0Ljc3Mi00Ljc3Miw0Ljc3MkgxMTAuOTM0Yy0yLjYzMiwwLTQuNzcyLTIuMTQxLTQuNzcyLTQuNzcydi00LjkwN2MwLTAuMDY2LDAuMDU1LTAuMTIxLDAuMTIxLTAuMTIxaDE0MC41NjgmIzEwOyYjOTsmIzk7JiM5O0MyNDYuOTE3LDIyMS44NDcsMjQ2Ljk3MiwyMjEuOTAyLDI0Ni45NzIsMjIxLjk2OHogTTIzOS4xODEsMTQ1LjI0N3Y3MS42MDFIMTE0LjQ5NnYtNzEuNjAxYzAtMS42MjEsMS4zMTgtMi45MzksMi45MzktMi45MzkmIzEwOyYjOTsmIzk7JiM5O2MxMy40MTcsMCwxMDUuOTIxLDAsMTE4LjgwNiwwQzIzNy44NjIsMTQyLjMwNywyMzkuMTgxLDE0My42MjYsMjM5LjE4MSwxNDUuMjQ3eiIvPiYjeGE7CTwvZz4mI3hhOzwvZz4mI3hhOzwvc3ZnPg==;" vertex="1" parent="1">
          <mxGeometry x="203" y="1855" width="100" height="100" as="geometry" />
        </mxCell>
        <mxCell id="dyGQCXBNsjJ9LCaC6bJl-57" value="" style="group" vertex="1" connectable="0" parent="1">
          <mxGeometry x="366.02" y="1852" width="162.98000000000002" height="106" as="geometry" />
        </mxCell>
        <mxCell id="dyGQCXBNsjJ9LCaC6bJl-25" value="Unit Test a Peice of Code" style="rounded=1;whiteSpace=wrap;html=1;verticalAlign=top;" vertex="1" parent="dyGQCXBNsjJ9LCaC6bJl-57">
          <mxGeometry width="162.98" height="106" as="geometry" />
        </mxCell>
        <mxCell id="dyGQCXBNsjJ9LCaC6bJl-46" value="" style="shape=image;verticalLabelPosition=bottom;labelBackgroundColor=default;verticalAlign=top;aspect=fixed;imageAspect=0;image=data:image/svg+xml,PHN2ZyB4bWxuczp4bGluaz0iaHR0cDovL3d3dy53My5vcmcvMTk5OS94bGluayIgeG1sbnM9Imh0dHA6Ly93d3cudzMub3JnLzIwMDAvc3ZnIiB4bWw6c3BhY2U9InByZXNlcnZlIiB2aWV3Qm94PSIwIDAgMjU2IDI1NiIgeT0iMHB4IiB4PSIwcHgiIGlkPSJMYXllcl8xIiB2ZXJzaW9uPSIxLjEiPiYjeGE7PGc+JiN4YTsJPHBhdGggZD0iTTI0My44OTgsMTgzLjIxM2MwLDMuMzEtMi43MDgsNi4wMTgtNi4wMTgsNi4wMThIMTguMTJjLTMuMzEsMC02LjAxOC0yLjcwOC02LjAxOC02LjAxOFY3LjU4NiYjMTA7JiM5OyYjOTtjMC0zLjMxLDIuNzA4LTYuMDE4LDYuMDE4LTYuMDE4aDIxOS43NmMzLjMxLDAsNi4wMTgsMi43MDgsNi4wMTgsNi4wMThWMTgzLjIxM3oiIGZpbGw9IiM2M0JDRTciLz4mI3hhOwk8Zz4mI3hhOwkJPHBhdGggZD0iTTI3LjEwMiwxODMuMjEzVjcuNTg2YzAtMy4zMSwyLjcwOC02LjAxOCw2LjAxOC02LjAxOGgtMTVjLTMuMzEsMC02LjAxOCwyLjcwOC02LjAxOCw2LjAxOHYxNzUuNjI3JiMxMDsmIzk7JiM5OyYjOTtjMCwzLjMxLDIuNzA4LDYuMDE4LDYuMDE4LDYuMDE4aDE1QzI5LjgxLDE4OS4yMzEsMjcuMTAyLDE4Ni41MjMsMjcuMTAyLDE4My4yMTN6IiBmaWxsPSIjNjM3N0U3Ii8+JiN4YTsJPC9nPiYjeGE7CTxnPiYjeGE7CQk8cGF0aCBkPSJNMjI4Ljg5OCwxODMuMjEzVjcuNTg2YzAtMy4zMS0yLjcwOC02LjAxOC02LjAxOC02LjAxOGgxNWMzLjMxLDAsNi4wMTgsMi43MDgsNi4wMTgsNi4wMTh2MTc1LjYyNyYjMTA7JiM5OyYjOTsmIzk7YzAsMy4zMS0yLjcwOCw2LjAxOC02LjAxOCw2LjAxOGgtMTVDMjI2LjE5LDE4OS4yMzEsMjI4Ljg5OCwxODYuNTIzLDIyOC44OTgsMTgzLjIxM3oiIGZpbGw9IiM2M0UyRTciLz4mI3hhOwk8L2c+JiN4YTsJPGc+JiN4YTsJCTxwYXRoIGQ9Ik0yMzcuODgsMS41NjhIMTguMTJjLTMuMzEsMC02LjAxOCwyLjcwOC02LjAxOCw2LjAxOFYyNC41NWgyMzEuNzk2VjcuNTg2JiMxMDsmIzk7JiM5OyYjOTtDMjQzLjg5OCw0LjI3NiwyNDEuMTksMS41NjgsMjM3Ljg4LDEuNTY4eiIgZmlsbD0iI0NFQ0VDRSIvPiYjeGE7CTwvZz4mI3hhOwk8Zz4mI3hhOwkJPHBhdGggZD0iTTMzLjEyLDEuNTY4aC0xNWMtMy4zMSwwLTYuMDE4LDIuNzA4LTYuMDE4LDYuMDE4VjI0LjU1aDE1VjcuNTg2QzI3LjEwMiw0LjI3NiwyOS44MSwxLjU2OCwzMy4xMiwxLjU2OHoiIGZpbGw9IiNBRkFGQUYiLz4mI3hhOwk8L2c+JiN4YTsJPGc+JiN4YTsJCTxwYXRoIGQ9Ik0yMjIuODgsMS41NjhoMTVjMy4zMSwwLDYuMDE4LDIuNzA4LDYuMDE4LDYuMDE4VjI0LjU1aC0xNVY3LjU4NiYjMTA7JiM5OyYjOTsmIzk7QzIyOC44OTgsNC4yNzYsMjI2LjE5LDEuNTY4LDIyMi44OCwxLjU2OHoiIGZpbGw9IiNFMkUyRTIiLz4mI3hhOwk8L2c+JiN4YTsJPGNpcmNsZSByPSIzLjg0MiIgY3k9IjEzLjA1OSIgY3g9IjIzLjA4MiIgZmlsbD0iIzYzQkNFNyIvPiYjeGE7CTxjaXJjbGUgcj0iMy44NDIiIGN5PSIxMy4wNTkiIGN4PSIzOC40MzIiIGZpbGw9IiNGOEFGMjMiLz4mI3hhOwk8Y2lyY2xlIHI9IjMuODQyIiBjeT0iMTMuMDU5IiBjeD0iNTMuNzgzIiBmaWxsPSIjRjQ2Mjc1Ii8+JiN4YTsJPGNpcmNsZSByPSI3My43NDciIGN5PSIxNjguOTk1IiBjeD0iMTI4IiBmaWxsPSIjRjhBRjIzIi8+JiN4YTsJPGc+JiN4YTsJCTxwYXRoIGQ9Ik0yMy4wODIsNy43MTdjLTIuOTQ2LDAtNS4zNDMsMi4zOTYtNS4zNDMsNS4zNDJzMi4zOTYsNS4zNDIsNS4zNDMsNS4zNDJjMi45NDUsMCw1LjM0Mi0yLjM5Niw1LjM0Mi01LjM0MiYjMTA7JiM5OyYjOTsmIzk7UzI2LjAyNyw3LjcxNywyMy4wODIsNy43MTd6IE0yMy4wODIsMTUuNDAxYy0xLjI5MiwwLTIuMzQzLTEuMDUxLTIuMzQzLTIuMzQyczEuMDUxLTIuMzQyLDIuMzQzLTIuMzQyJiMxMDsmIzk7JiM5OyYjOTtjMS4yOTEsMCwyLjM0MiwxLjA1MSwyLjM0MiwyLjM0MlMyNC4zNzMsMTUuNDAxLDIzLjA4MiwxNS40MDF6IiBmaWxsPSIjM0YzNjc5Ii8+JiN4YTsJCTxwYXRoIGQ9Ik0zOC40MzMsNy43MTdjLTIuOTQ2LDAtNS4zNDMsMi4zOTYtNS4zNDMsNS4zNDJzMi4zOTYsNS4zNDIsNS4zNDMsNS4zNDJjMi45NDUsMCw1LjM0Mi0yLjM5Niw1LjM0Mi01LjM0MiYjMTA7JiM5OyYjOTsmIzk7UzQxLjM3OCw3LjcxNywzOC40MzMsNy43MTd6IE0zOC40MzMsMTUuNDAxYy0xLjI5MiwwLTIuMzQzLTEuMDUxLTIuMzQzLTIuMzQyczEuMDUxLTIuMzQyLDIuMzQzLTIuMzQyJiMxMDsmIzk7JiM5OyYjOTtjMS4yOTEsMCwyLjM0MiwxLjA1MSwyLjM0MiwyLjM0MlMzOS43MjQsMTUuNDAxLDM4LjQzMywxNS40MDF6IiBmaWxsPSIjM0YzNjc5Ii8+JiN4YTsJCTxwYXRoIGQ9Ik01My43ODMsNy43MTdjLTIuOTQ1LDAtNS4zNDIsMi4zOTYtNS4zNDIsNS4zNDJzMi4zOTYsNS4zNDIsNS4zNDIsNS4zNDJzNS4zNDItMi4zOTYsNS4zNDItNS4zNDImIzEwOyYjOTsmIzk7JiM5O1M1Ni43MjksNy43MTcsNTMuNzgzLDcuNzE3eiBNNTMuNzgzLDE1LjQwMWMtMS4yOTEsMC0yLjM0Mi0xLjA1MS0yLjM0Mi0yLjM0MnMxLjA1MS0yLjM0MiwyLjM0Mi0yLjM0MnMyLjM0MiwxLjA1MSwyLjM0MiwyLjM0MiYjMTA7JiM5OyYjOTsmIzk7UzU1LjA3NCwxNS40MDEsNTMuNzgzLDE1LjQwMXoiIGZpbGw9IiMzRjM2NzkiLz4mI3hhOwkJPHBhdGggZD0iTTIwLjc0NywyNTIuOTMySDEuNTY4Yy0wLjgyOCwwLTEuNSwwLjY3MS0xLjUsMS41czAuNjcyLDEuNSwxLjUsMS41aDE5LjE3OWMwLjgyOCwwLDEuNS0wLjY3MSwxLjUtMS41JiMxMDsmIzk7JiM5OyYjOTtTMjEuNTc1LDI1Mi45MzIsMjAuNzQ3LDI1Mi45MzJ6IiBmaWxsPSIjM0YzNjc5Ii8+JiN4YTsJCTxwYXRoIGQ9Ik0yNTQuNDMyLDI1Mi45MzJoLTE5LjE3OWMtMC44MjgsMC0xLjUsMC42NzEtMS41LDEuNXMwLjY3MiwxLjUsMS41LDEuNWgxOS4xNzljMC44MjgsMCwxLjUtMC42NzEsMS41LTEuNSYjMTA7JiM5OyYjOTsmIzk7UzI1NS4yNiwyNTIuOTMyLDI1NC40MzIsMjUyLjkzMnoiIGZpbGw9IiMzRjM2NzkiLz4mI3hhOwkJPHBhdGggZD0iTTIyNC4zOSwyNTIuOTMySDMxLjYxYy0wLjgyOCwwLTEuNSwwLjY3MS0xLjUsMS41czAuNjcyLDEuNSwxLjUsMS41SDIyNC4zOWMwLjgyOCwwLDEuNS0wLjY3MSwxLjUtMS41JiMxMDsmIzk7JiM5OyYjOTtTMjI1LjIxOCwyNTIuOTMyLDIyNC4zOSwyNTIuOTMyeiIgZmlsbD0iIzNGMzY3OSIvPiYjeGE7CQk8cGF0aCBkPSJNMS41NjgsMjQ0LjI0MmgyNTIuODYzYzAuODI4LDAsMS41LTAuNjcxLDEuNS0xLjVzLTAuNjcyLTEuNS0xLjUtMS41SDE0OC45ODYmIzEwOyYjOTsmIzk7JiM5O2MyNC4zOTItNy4wOTcsNDMuNzA1LTI2LjIyMyw1MS4wNDgtNTAuNTExaDM3Ljg0NmM0LjE0NiwwLDcuNTE4LTMuMzczLDcuNTE4LTcuNTE4VjI0LjU1VjcuNTg2djAmIzEwOyYjOTsmIzk7JiM5O2MwLTIuMzMyLTEuMDY3LTQuNDE5LTIuNzM4LTUuNzk5Yy0xLjMtMS4wNzMtMi45NjYtMS43MTktNC43NzktMS43MTlIMTguMTJjLTEuODE0LDAtMy40NzksMC42NDYtNC43NzksMS43MTkmIzEwOyYjOTsmIzk7JiM5O2MtMS42NzEsMS4zOC0yLjczOCwzLjQ2Ny0yLjczOCw1Ljc5OXYwVjI0LjU1djE1OC42NjRjMCw0LjE0NSwzLjM3Miw3LjUxOCw3LjUxOCw3LjUxOGgzNy44NDYmIzEwOyYjOTsmIzk7JiM5O2M3LjM0MywyNC4yODgsMjYuNjU1LDQzLjQxNCw1MS4wNDgsNTAuNTExSDEuNTY4Yy0wLjgyOCwwLTEuNSwwLjY3MS0xLjUsMS41UzAuNzQsMjQ0LjI0MiwxLjU2OCwyNDQuMjQyeiBNMTMuNjAzLDcuNTg2JiMxMDsmIzk7JiM5OyYjOTtjMC0yLjQ5MSwyLjAyNi00LjUxOCw0LjUxOC00LjUxOGgyMTkuNzZjMi40OTEsMCw0LjUxOCwyLjAyNyw0LjUxOCw0LjUxOFYyMy4wNUgxMy42MDNWNy41ODZ6IE0xOC4xMiwxODcuNzMxJiMxMDsmIzk7JiM5OyYjOTtjLTIuNDkxLDAtNC41MTgtMi4wMjYtNC41MTgtNC41MThWMjYuMDVoMjI4Ljc5NXYxNTcuMTY0YzAsMi40OTEtMi4wMjYsNC41MTgtNC41MTgsNC41MThoLTM2Ljk5NSYjMTA7JiM5OyYjOTsmIzk7YzEuNTQxLTUuOTkyLDIuMzYyLTEyLjI3LDIuMzYyLTE4LjczNmMwLTQxLjQ5Mi0zMy43NTYtNzUuMjQ4LTc1LjI0Ny03NS4yNDhzLTc1LjI0NywzMy43NTYtNzUuMjQ3LDc1LjI0OCYjMTA7JiM5OyYjOTsmIzk7YzAsNi40NjYsMC44MjEsMTIuNzQ0LDIuMzYyLDE4LjczNkgxOC4xMnogTTU1Ljc5MSwxNzAuNDk1aDguNDU5YzAuODI4LDAsMS41LTAuNjcxLDEuNS0xLjVzLTAuNjcyLTEuNS0xLjUtMS41aC04LjQ1OSYjMTA7JiM5OyYjOTsmIzk7YzAuNzk0LTM4LjY0NSwzMi4wNjUtNjkuOTE2LDcwLjcwOS03MC43MDl2OC40NTljMCwwLjgyOSwwLjY3MiwxLjUsMS41LDEuNXMxLjUtMC42NzEsMS41LTEuNXYtOC40NTkmIzEwOyYjOTsmIzk7JiM5O2MzOC42NDQsMC43OTQsNjkuOTE1LDMyLjA2NSw3MC43MDksNzAuNzA5aC04LjQ1OWMtMC44MjgsMC0xLjUsMC42NzEtMS41LDEuNXMwLjY3MiwxLjUsMS41LDEuNWg4LjQ1OSYjMTA7JiM5OyYjOTsmIzk7Yy0wLjc5NCwzOC42NDUtMzIuMDY1LDY5LjkxNi03MC43MDksNzAuNzA5di04LjQ1OWMwLTAuODI5LTAuNjcyLTEuNS0xLjUtMS41cy0xLjUsMC42NzEtMS41LDEuNXY4LjQ1OSYjMTA7JiM5OyYjOTsmIzk7Qzg3Ljg1NiwyNDAuNDEsNTYuNTg1LDIwOS4xMzksNTUuNzkxLDE3MC40OTV6IiBmaWxsPSIjM0YzNjc5Ii8+JiN4YTsJCTxwYXRoIGQ9Ik0xMjgsMTcwLjQ5NWgzOC40MTNjMC44MjgsMCwxLjUtMC42NzEsMS41LTEuNXMtMC42NzItMS41LTEuNS0xLjVIMTI5LjVWMTE2LjRjMC0wLjgyOS0wLjY3Mi0xLjUtMS41LTEuNSYjMTA7JiM5OyYjOTsmIzk7cy0xLjUsMC42NzEtMS41LDEuNXY1Mi41OTRDMTI2LjUsMTY5LjgyMywxMjcuMTcyLDE3MC40OTUsMTI4LDE3MC40OTV6IiBmaWxsPSIjM0YzNjc5Ii8+JiN4YTsJCTxwYXRoIGQ9Ik0zNS40NjQsNDYuMDhoODAuOTE3YzAuODI4LDAsMS41LTAuNjcxLDEuNS0xLjVzLTAuNjcyLTEuNS0xLjUtMS41SDM1LjQ2NGMtMC44MjgsMC0xLjUsMC42NzEtMS41LDEuNSYjMTA7JiM5OyYjOTsmIzk7UzM0LjYzNiw0Ni4wOCwzNS40NjQsNDYuMDh6IiBmaWxsPSIjM0YzNjc5Ii8+JiN4YTsJCTxwYXRoIGQ9Ik0zNS40NjQsNjEuMzk4aDgwLjkxN2MwLjgyOCwwLDEuNS0wLjY3MSwxLjUtMS41cy0wLjY3Mi0xLjUtMS41LTEuNUgzNS40NjRjLTAuODI4LDAtMS41LDAuNjcxLTEuNSwxLjUmIzEwOyYjOTsmIzk7JiM5O1MzNC42MzYsNjEuMzk4LDM1LjQ2NCw2MS4zOTh6IiBmaWxsPSIjM0YzNjc5Ii8+JiN4YTsJCTxwYXRoIGQ9Ik0xMTcuODgxLDc1LjIxN2MwLTAuODI5LTAuNjcyLTEuNS0xLjUtMS41SDM1LjQ2NGMtMC44MjgsMC0xLjUsMC42NzEtMS41LDEuNXMwLjY3MiwxLjUsMS41LDEuNWg4MC45MTcmIzEwOyYjOTsmIzk7JiM5O0MxMTcuMjA5LDc2LjcxNywxMTcuODgxLDc2LjA0NiwxMTcuODgxLDc1LjIxN3oiIGZpbGw9IiMzRjM2NzkiLz4mI3hhOwkJPHBhdGggZD0iTTEzOS42MTksNDYuMDhoODAuOTE3YzAuODI4LDAsMS41LTAuNjcxLDEuNS0xLjVzLTAuNjcyLTEuNS0xLjUtMS41aC04MC45MTdjLTAuODI4LDAtMS41LDAuNjcxLTEuNSwxLjUmIzEwOyYjOTsmIzk7JiM5O1MxMzguNzkxLDQ2LjA4LDEzOS42MTksNDYuMDh6IiBmaWxsPSIjM0YzNjc5Ii8+JiN4YTsJCTxwYXRoIGQ9Ik0xMzkuNjE5LDYxLjM5OGg4MC45MTdjMC44MjgsMCwxLjUtMC42NzEsMS41LTEuNXMtMC42NzItMS41LTEuNS0xLjVoLTgwLjkxN2MtMC44MjgsMC0xLjUsMC42NzEtMS41LDEuNSYjMTA7JiM5OyYjOTsmIzk7UzEzOC43OTEsNjEuMzk4LDEzOS42MTksNjEuMzk4eiIgZmlsbD0iIzNGMzY3OSIvPiYjeGE7CQk8cGF0aCBkPSJNMTM5LjYxOSw3Ni43MTdoODAuOTE3YzAuODI4LDAsMS41LTAuNjcxLDEuNS0xLjVzLTAuNjcyLTEuNS0xLjUtMS41aC04MC45MTdjLTAuODI4LDAtMS41LDAuNjcxLTEuNSwxLjUmIzEwOyYjOTsmIzk7JiM5O1MxMzguNzkxLDc2LjcxNywxMzkuNjE5LDc2LjcxN3oiIGZpbGw9IiMzRjM2NzkiLz4mI3hhOwk8L2c+JiN4YTs8L2c+JiN4YTs8L3N2Zz4=;" vertex="1" parent="dyGQCXBNsjJ9LCaC6bJl-57">
          <mxGeometry x="17.5" y="28" width="60" height="60" as="geometry" />
        </mxCell>
        <mxCell id="dyGQCXBNsjJ9LCaC6bJl-42" value="" style="shape=image;verticalLabelPosition=bottom;labelBackgroundColor=default;verticalAlign=top;aspect=fixed;imageAspect=0;image=data:image/svg+xml,PHN2ZyB4bWxuczp4bGluaz0iaHR0cDovL3d3dy53My5vcmcvMTk5OS94bGluayIgeG1sbnM9Imh0dHA6Ly93d3cudzMub3JnLzIwMDAvc3ZnIiB4bWw6c3BhY2U9InByZXNlcnZlIiBzdHlsZT0iZW5hYmxlLWJhY2tncm91bmQ6bmV3IDAgMCA0OTIgNDkyOyIgdmlld0JveD0iMCAwIDQ5MiA0OTIiIHk9IjBweCIgeD0iMHB4IiB2ZXJzaW9uPSIxLjEiPiYjeGE7PGcgaWQ9Ik1hc3Rlcl9MYXllcl8yIj4mI3hhOzwvZz4mI3hhOzxnIGlkPSJMYXllcl8xIj4mI3hhOwk8Zz4mI3hhOwkJPGc+JiN4YTsJCQk8Zz4mI3hhOwkJCQk8Zz4mI3hhOwkJCQkJPGc+JiN4YTsJCQkJCQk8Zz4mI3hhOwkJCQkJCQk8cGF0aCBkPSJNMjc2Ljk4LDQzMS4wNmMtODQuODMyLDAtMTUzLjYtNjguNzY4LTE1My42LTE1My42JiMxMDsmIzk7JiM5OyYjOTsmIzk7JiM5OyYjOTsmIzk7JiM5O2w2MS40NCwwYzAtMTAuMTgsOC4yNTMtMTguNDMyLDE4LjQzMi0xOC40MzJjNS4wODksMCw5LjY5NywyLjA2NCwxMy4wMzQsNS4zOThjMy4zMzUsMy4zMzcsNS4zOTgsNy45NDUsNS4zOTgsMTMuMDM0aDU1LjI5NiYjMTA7JiM5OyYjOTsmIzk7JiM5OyYjOTsmIzk7JiM5OyYjOTtWNDMxLjA2eiIgc3R5bGU9ImZpbGwtcnVsZTpldmVub2RkO2NsaXAtcnVsZTpldmVub2RkO2ZpbGw6IzBCNzk5RDsiLz4mI3hhOwkJCQkJCTwvZz4mI3hhOwkJCQkJCTxnPiYjeGE7CQkJCQkJCTxwYXRoIGQ9Ik00MzAuNTgsMjc3LjQ2YzAsODQuODMyLTY4Ljc2OCwxNTMuNi0xNTMuNiwxNTMuNiYjMTA7JiM5OyYjOTsmIzk7JiM5OyYjOTsmIzk7JiM5OyYjOTt2LTYxLjQ0Yy0xMC4xOCwwLTE4LjQzMi04LjI1My0xOC40MzItMTguNDMyYzAtNS4wODksMi4wNjQtOS42OTcsNS4zOTgtMTMuMDM0YzMuMzM3LTMuMzM1LDcuOTQ1LTUuMzk4LDEzLjAzNC01LjM5OCYjMTA7JiM5OyYjOTsmIzk7JiM5OyYjOTsmIzk7JiM5OyYjOTtsMC01NS4yOTZINDMwLjU4eiIgc3R5bGU9ImZpbGwtcnVsZTpldmVub2RkO2NsaXAtcnVsZTpldmVub2RkO2ZpbGw6I0ZGNEE0QTsiLz4mI3hhOwkJCQkJCTwvZz4mI3hhOwkJCQkJCTxnPiYjeGE7CQkJCQkJCTxwYXRoIGQ9Ik00MzAuNTgsMjc3LjQ2aC02MS40NCYjMTA7JiM5OyYjOTsmIzk7JiM5OyYjOTsmIzk7JiM5OyYjOTtjMCwxMC4xOC04LjI1MywxOC40MzItMTguNDMyLDE4LjQzMmMtNS4wODksMC05LjY5Ny0yLjA2NC0xMy4wMzQtNS4zOThjLTMuMzM1LTMuMzM3LTUuMzk4LTcuOTQ1LTUuMzk4LTEzLjAzNEgyNzYuOTgmIzEwOyYjOTsmIzk7JiM5OyYjOTsmIzk7JiM5OyYjOTsmIzk7di00OS4xNTJjNS4wODksMCw5LjY5Ny0yLjA2NCwxMy4wMzQtNS4zOThjMy4zMzUtMy4zMzcsNS4zOTgtNy45NDUsNS4zOTgtMTMuMDM0YzAtMTAuMTgtOC4yNTMtMTguNDMyLTE4LjQzMi0xOC40MzJWMTIzLjg2JiMxMDsmIzk7JiM5OyYjOTsmIzk7JiM5OyYjOTsmIzk7JiM5O0MzNjEuODEyLDEyMy44Niw0MzAuNTgsMTkyLjYyOCw0MzAuNTgsMjc3LjQ2eiIgc3R5bGU9ImZpbGwtcnVsZTpldmVub2RkO2NsaXAtcnVsZTpldmVub2RkO2ZpbGw6I0ZGRjY4RTsiLz4mI3hhOwkJCQkJCTwvZz4mI3hhOwkJCQkJCTxnPiYjeGE7CQkJCQkJCTxwYXRoIGQ9Ik0yMzMuOTcyLDE0OC40MzZjMCw1LjA4OS0yLjA2NCw5LjY5Ny01LjM5OCwxMy4wMzQmIzEwOyYjOTsmIzk7JiM5OyYjOTsmIzk7JiM5OyYjOTsmIzk7Yy0zLjMzNywzLjMzNC03Ljk0NSw1LjM5OC0xMy4wMzQsNS4zOTh2NDkuMTUyaC01NS4yOTZjMC01LjA4OS0yLjA2NC05LjY5Ny01LjM5OC0xMy4wMzQmIzEwOyYjOTsmIzk7JiM5OyYjOTsmIzk7JiM5OyYjOTsmIzk7Yy0zLjMzNy0zLjMzNS03Ljk0NS01LjM5OC0xMy4wMzQtNS4zOThjLTEwLjE4LDAtMTguNDMyLDguMjUyLTE4LjQzMiwxOC40MzJINjEuOTRjMC04NC44MzIsNjguNzY4LTE1My42LDE1My42LTE1My42JiMxMDsmIzk7JiM5OyYjOTsmIzk7JiM5OyYjOTsmIzk7JiM5O3Y2Ny41ODRDMjI1LjcyLDEzMC4wMDQsMjMzLjk3MiwxMzguMjU2LDIzMy45NzIsMTQ4LjQzNnoiIHN0eWxlPSJmaWxsLXJ1bGU6ZXZlbm9kZDtjbGlwLXJ1bGU6ZXZlbm9kZDtmaWxsOiMwMEZGOTQ7Ii8+JiN4YTsJCQkJCQk8L2c+JiN4YTsJCQkJCTwvZz4mI3hhOwkJCQkJPGc+JiN4YTsJCQkJCQk8Zz4mI3hhOwkJCQkJCQk8Zz4mI3hhOwkJCQkJCQkJPHBhdGggZD0iTTEyMy4zOCwxNjYuNjdjLTEuNTIyLDAtMy4wNDMtMC41ODEtNC4yMDQtMS43NDEmIzEwOyYjOTsmIzk7JiM5OyYjOTsmIzk7JiM5OyYjOTsmIzk7JiM5O2wtMTIuMjg4LTEyLjI4OGMtMS4xMTUtMS4xMTUtMS43NDEtMi42MjctMS43NDEtNC4yMDRzMC42MjctMy4wODksMS43NDEtNC4yMDRsMTIuMjg4LTEyLjI4OCYjMTA7JiM5OyYjOTsmIzk7JiM5OyYjOTsmIzk7JiM5OyYjOTsmIzk7YzIuMzIyLTIuMzIyLDYuMDg3LTIuMzIyLDguNDA5LDBjMi4zMjIsMi4zMjIsMi4zMjIsNi4wODcsMCw4LjQwOWwtOC4wODQsOC4wODRsOC4wODQsOC4wODQmIzEwOyYjOTsmIzk7JiM5OyYjOTsmIzk7JiM5OyYjOTsmIzk7JiM5O2MyLjMyMiwyLjMyMiwyLjMyMiw2LjA4NiwwLDguNDA5QzEyNi40MjQsMTY2LjA4OSwxMjQuOTAyLDE2Ni42NywxMjMuMzgsMTY2LjY3eiIgc3R5bGU9ImZpbGwtcnVsZTpldmVub2RkO2NsaXAtcnVsZTpldmVub2RkO2ZpbGw6IzBCNzk5RDsiLz4mI3hhOwkJCQkJCQk8L2c+JiN4YTsJCQkJCQkJPGc+JiN4YTsJCQkJCQkJCTxwYXRoIGQ9Ik0xODQuODIsMTY2LjY3Yy0xLjUyMiwwLTMuMDQzLTAuNTgtNC4yMDQtMS43NDEmIzEwOyYjOTsmIzk7JiM5OyYjOTsmIzk7JiM5OyYjOTsmIzk7JiM5O2MtMi4zMjItMi4zMjItMi4zMjItNi4wODcsMC04LjQwOWw4LjA4My04LjA4NGwtOC4wODMtOC4wODRjLTIuMzIyLTIuMzIyLTIuMzIyLTYuMDg3LDAtOC40MDkmIzEwOyYjOTsmIzk7JiM5OyYjOTsmIzk7JiM5OyYjOTsmIzk7JiM5O2MyLjMyMi0yLjMyMiw2LjA4Ny0yLjMyMiw4LjQwOSwwbDEyLjI4OCwxMi4yODhjMS4xMTUsMS4xMTUsMS43NDEsMi42MjgsMS43NDEsNC4yMDRzLTAuNjI2LDMuMDg5LTEuNzQxLDQuMjA0JiMxMDsmIzk7JiM5OyYjOTsmIzk7JiM5OyYjOTsmIzk7JiM5OyYjOTtsLTEyLjI4OCwxMi4yODhDMTg3Ljg2NCwxNjYuMDg5LDE4Ni4zNDIsMTY2LjY3LDE4NC44MiwxNjYuNjd6IiBzdHlsZT0iZmlsbC1ydWxlOmV2ZW5vZGQ7Y2xpcC1ydWxlOmV2ZW5vZGQ7ZmlsbDojMEI3OTlEOyIvPiYjeGE7CQkJCQkJCTwvZz4mI3hhOwkJCQkJCQk8Zz4mI3hhOwkJCQkJCQkJPHBhdGggZD0iTTE2MC4yNDksMTY2LjY3MWMtMi4xODEsMC00LjI4MS0xLjIwNC01LjMyMy0zLjI4OCYjMTA7JiM5OyYjOTsmIzk7JiM5OyYjOTsmIzk7JiM5OyYjOTsmIzk7bC0xMi4yODgtMjQuNTc2Yy0xLjQ2OS0yLjkzNy0wLjI3OC02LjUwOSwyLjY1OS03Ljk3N2MyLjkzNy0xLjQ2OSw2LjUwOS0wLjI3OCw3Ljk3NywyLjY1OWwxMi4yODgsMjQuNTc2JiMxMDsmIzk7JiM5OyYjOTsmIzk7JiM5OyYjOTsmIzk7JiM5OyYjOTtjMS40NjksMi45MzcsMC4yNzgsNi41MDktMi42NTksNy45NzdDMTYyLjA1LDE2Ni40NjksMTYxLjE0MiwxNjYuNjcxLDE2MC4yNDksMTY2LjY3MXoiIHN0eWxlPSJmaWxsLXJ1bGU6ZXZlbm9kZDtjbGlwLXJ1bGU6ZXZlbm9kZDtmaWxsOiMwQjc5OUQ7Ii8+JiN4YTsJCQkJCQkJPC9nPiYjeGE7CQkJCQkJPC9nPiYjeGE7CQkJCQk8L2c+JiN4YTsJCQkJPC9nPiYjeGE7CQkJPC9nPiYjeGE7CQk8L2c+JiN4YTsJPC9nPiYjeGE7PC9nPiYjeGE7PC9zdmc+;" vertex="1" parent="dyGQCXBNsjJ9LCaC6bJl-57">
          <mxGeometry x="76" y="18" width="80" height="80" as="geometry" />
        </mxCell>
        <mxCell id="dyGQCXBNsjJ9LCaC6bJl-76" value="Unit Testing" style="text;html=1;align=center;verticalAlign=middle;resizable=0;points=[];autosize=1;strokeColor=none;fillColor=none;" vertex="1" parent="1">
          <mxGeometry x="213" y="1958" width="80" height="26" as="geometry" />
        </mxCell>
      </root>
    </mxGraphModel>
  </diagram>
  <diagram id="Co5TeBamr3l6jV04hTX6" name="Page-2">
    <mxGraphModel dx="1114" dy="789" grid="0" gridSize="10" guides="1" tooltips="1" connect="1" arrows="1" fold="1" page="1" pageScale="1" pageWidth="850" pageHeight="1100" math="0" shadow="0">
      <root>
        <mxCell id="0" />
        <mxCell id="1" parent="0" />
        <mxCell id="MkEAqG1i6s110wcmXcbk-6" value="" style="edgeStyle=orthogonalEdgeStyle;rounded=0;orthogonalLoop=1;jettySize=auto;html=1;" edge="1" parent="1" source="MkEAqG1i6s110wcmXcbk-2" target="MkEAqG1i6s110wcmXcbk-5">
          <mxGeometry relative="1" as="geometry" />
        </mxCell>
        <mxCell id="MkEAqG1i6s110wcmXcbk-2" value="Start E2E Test" style="ellipse;whiteSpace=wrap;html=1;" vertex="1" parent="1">
          <mxGeometry x="272" y="280" width="120" height="80" as="geometry" />
        </mxCell>
        <mxCell id="MkEAqG1i6s110wcmXcbk-8" value="" style="edgeStyle=orthogonalEdgeStyle;rounded=0;orthogonalLoop=1;jettySize=auto;html=1;" edge="1" parent="1" source="MkEAqG1i6s110wcmXcbk-5" target="MkEAqG1i6s110wcmXcbk-7">
          <mxGeometry relative="1" as="geometry" />
        </mxCell>
        <mxCell id="MkEAqG1i6s110wcmXcbk-5" value="Register Job Manager" style="whiteSpace=wrap;html=1;" vertex="1" parent="1">
          <mxGeometry x="472" y="290" width="120" height="60" as="geometry" />
        </mxCell>
        <mxCell id="MkEAqG1i6s110wcmXcbk-10" value="" style="edgeStyle=orthogonalEdgeStyle;rounded=0;orthogonalLoop=1;jettySize=auto;html=1;" edge="1" parent="1" source="MkEAqG1i6s110wcmXcbk-7" target="MkEAqG1i6s110wcmXcbk-9">
          <mxGeometry relative="1" as="geometry" />
        </mxCell>
        <mxCell id="MkEAqG1i6s110wcmXcbk-7" value="Post Job" style="whiteSpace=wrap;html=1;" vertex="1" parent="1">
          <mxGeometry x="472" y="372" width="120" height="60" as="geometry" />
        </mxCell>
        <mxCell id="MkEAqG1i6s110wcmXcbk-12" value="" style="edgeStyle=orthogonalEdgeStyle;rounded=0;orthogonalLoop=1;jettySize=auto;html=1;" edge="1" parent="1" source="MkEAqG1i6s110wcmXcbk-9" target="MkEAqG1i6s110wcmXcbk-11">
          <mxGeometry relative="1" as="geometry" />
        </mxCell>
        <mxCell id="MkEAqG1i6s110wcmXcbk-9" value="Register Freelancer" style="whiteSpace=wrap;html=1;" vertex="1" parent="1">
          <mxGeometry x="472" y="457" width="120" height="60" as="geometry" />
        </mxCell>
        <mxCell id="MkEAqG1i6s110wcmXcbk-11" value="Sign&amp;nbsp;" style="whiteSpace=wrap;html=1;" vertex="1" parent="1">
          <mxGeometry x="472" y="544" width="120" height="60" as="geometry" />
        </mxCell>
      </root>
    </mxGraphModel>
  </diagram>
</mxfile>
